<?xml version="1.0" encoding="utf-8"?>
<!-- Generator: Adobe Illustrator 23.0.4, SVG Export Plug-In . SVG Version: 6.00 Build 0)  -->
<svg version="1.1" id="bottom-frame" xmlns="http://www.w3.org/2000/svg" xmlns:xlink="http://www.w3.org/1999/xlink" x="0px"
	 y="0px" viewBox="0 0 279.1 346.6" style="enable-background:new 0 0 279.1 346.6;" xml:space="preserve">
<style type="text/css">
	.frame-color{fill:#000000;}
	.background-color{fill:#FFFFFF;}
	.text-color{fill:#FFFFFF;}
</style>

<svg xmlns="http://www.w3.org/2000/svg" xmlns:xlink="http://www.w3.org/1999/xlink" version="1.1" width="259.9" height="259.9" viewBox="0 0 2000 2000" x="9.7" y="9.6" shape-rendering="crispEdges"><defs/><rect x="0" y="0" width="2000" height="2000" fill="#ffffff"/><rect x="566" y="158" width="51" height="51" fill="#000000"/><rect x="821" y="158" width="51" height="51" fill="#000000"/><rect x="872" y="158" width="51" height="51" fill="#000000"/><rect x="974" y="158" width="51" height="51" fill="#000000"/><rect x="1127" y="158" width="51" height="51" fill="#000000"/><rect x="1178" y="158" width="51" height="51" fill="#000000"/><rect x="1280" y="158" width="51" height="51" fill="#000000"/><rect x="1331" y="158" width="51" height="51" fill="#000000"/><rect x="566" y="209" width="51" height="51" fill="#000000"/><rect x="719" y="209" width="51" height="51" fill="#000000"/><rect x="770" y="209" width="51" height="51" fill="#000000"/><rect x="821" y="209" width="51" height="51" fill="#000000"/><rect x="872" y="209" width="51" height="51" fill="#000000"/><rect x="923" y="209" width="51" height="51" fill="#000000"/><rect x="1025" y="209" width="51" height="51" fill="#000000"/><rect x="1127" y="209" width="51" height="51" fill="#000000"/><rect x="1178" y="209" width="51" height="51" fill="#000000"/><rect x="1229" y="209" width="51" height="51" fill="#000000"/><rect x="1280" y="209" width="51" height="51" fill="#000000"/><rect x="1331" y="209" width="51" height="51" fill="#000000"/><rect x="1382" y="209" width="51" height="51" fill="#000000"/><rect x="566" y="260" width="51" height="51" fill="#000000"/><rect x="617" y="260" width="51" height="51" fill="#000000"/><rect x="770" y="260" width="51" height="51" fill="#000000"/><rect x="872" y="260" width="51" height="51" fill="#000000"/><rect x="1127" y="260" width="51" height="51" fill="#000000"/><rect x="1178" y="260" width="51" height="51" fill="#000000"/><rect x="1229" y="260" width="51" height="51" fill="#000000"/><rect x="1280" y="260" width="51" height="51" fill="#000000"/><rect x="566" y="311" width="51" height="51" fill="#000000"/><rect x="617" y="311" width="51" height="51" fill="#000000"/><rect x="668" y="311" width="51" height="51" fill="#000000"/><rect x="770" y="311" width="51" height="51" fill="#000000"/><rect x="974" y="311" width="51" height="51" fill="#000000"/><rect x="1076" y="311" width="51" height="51" fill="#000000"/><rect x="1229" y="311" width="51" height="51" fill="#000000"/><rect x="1331" y="311" width="51" height="51" fill="#000000"/><rect x="617" y="362" width="51" height="51" fill="#000000"/><rect x="668" y="362" width="51" height="51" fill="#000000"/><rect x="770" y="362" width="51" height="51" fill="#000000"/><rect x="1076" y="362" width="51" height="51" fill="#000000"/><rect x="1127" y="362" width="51" height="51" fill="#000000"/><rect x="566" y="413" width="51" height="51" fill="#000000"/><rect x="617" y="413" width="51" height="51" fill="#000000"/><rect x="668" y="413" width="51" height="51" fill="#000000"/><rect x="1025" y="413" width="51" height="51" fill="#000000"/><rect x="1127" y="413" width="51" height="51" fill="#000000"/><rect x="1229" y="413" width="51" height="51" fill="#000000"/><rect x="1280" y="413" width="51" height="51" fill="#000000"/><rect x="566" y="464" width="51" height="51" fill="#000000"/><rect x="668" y="464" width="51" height="51" fill="#000000"/><rect x="770" y="464" width="51" height="51" fill="#000000"/><rect x="872" y="464" width="51" height="51" fill="#000000"/><rect x="974" y="464" width="51" height="51" fill="#000000"/><rect x="1076" y="464" width="51" height="51" fill="#000000"/><rect x="1178" y="464" width="51" height="51" fill="#000000"/><rect x="1280" y="464" width="51" height="51" fill="#000000"/><rect x="1382" y="464" width="51" height="51" fill="#000000"/><rect x="668" y="515" width="51" height="51" fill="#000000"/><rect x="719" y="515" width="51" height="51" fill="#000000"/><rect x="821" y="515" width="51" height="51" fill="#000000"/><rect x="923" y="515" width="51" height="51" fill="#000000"/><rect x="974" y="515" width="51" height="51" fill="#000000"/><rect x="1025" y="515" width="51" height="51" fill="#000000"/><rect x="1127" y="515" width="51" height="51" fill="#000000"/><rect x="1178" y="515" width="51" height="51" fill="#000000"/><rect x="1280" y="515" width="51" height="51" fill="#000000"/><rect x="1382" y="515" width="51" height="51" fill="#000000"/><rect x="158" y="566" width="51" height="51" fill="#000000"/><rect x="209" y="566" width="51" height="51" fill="#000000"/><rect x="362" y="566" width="51" height="51" fill="#000000"/><rect x="413" y="566" width="51" height="51" fill="#000000"/><rect x="464" y="566" width="51" height="51" fill="#000000"/><rect x="668" y="566" width="51" height="51" fill="#000000"/><rect x="770" y="566" width="51" height="51" fill="#000000"/><rect x="821" y="566" width="51" height="51" fill="#000000"/><rect x="1025" y="566" width="51" height="51" fill="#000000"/><rect x="1076" y="566" width="51" height="51" fill="#000000"/><rect x="1127" y="566" width="51" height="51" fill="#000000"/><rect x="1229" y="566" width="51" height="51" fill="#000000"/><rect x="1280" y="566" width="51" height="51" fill="#000000"/><rect x="1535" y="566" width="51" height="51" fill="#000000"/><rect x="1637" y="566" width="51" height="51" fill="#000000"/><rect x="1688" y="566" width="51" height="51" fill="#000000"/><rect x="1739" y="566" width="51" height="51" fill="#000000"/><rect x="1790" y="566" width="51" height="51" fill="#000000"/><rect x="158" y="617" width="51" height="51" fill="#000000"/><rect x="260" y="617" width="51" height="51" fill="#000000"/><rect x="413" y="617" width="51" height="51" fill="#000000"/><rect x="566" y="617" width="51" height="51" fill="#000000"/><rect x="821" y="617" width="51" height="51" fill="#000000"/><rect x="872" y="617" width="51" height="51" fill="#000000"/><rect x="923" y="617" width="51" height="51" fill="#000000"/><rect x="974" y="617" width="51" height="51" fill="#000000"/><rect x="1127" y="617" width="51" height="51" fill="#000000"/><rect x="1178" y="617" width="51" height="51" fill="#000000"/><rect x="1280" y="617" width="51" height="51" fill="#000000"/><rect x="1331" y="617" width="51" height="51" fill="#000000"/><rect x="1433" y="617" width="51" height="51" fill="#000000"/><rect x="1637" y="617" width="51" height="51" fill="#000000"/><rect x="1688" y="617" width="51" height="51" fill="#000000"/><rect x="1739" y="617" width="51" height="51" fill="#000000"/><rect x="1790" y="617" width="51" height="51" fill="#000000"/><rect x="260" y="668" width="51" height="51" fill="#000000"/><rect x="362" y="668" width="51" height="51" fill="#000000"/><rect x="464" y="668" width="51" height="51" fill="#000000"/><rect x="515" y="668" width="51" height="51" fill="#000000"/><rect x="617" y="668" width="51" height="51" fill="#000000"/><rect x="668" y="668" width="51" height="51" fill="#000000"/><rect x="923" y="668" width="51" height="51" fill="#000000"/><rect x="1076" y="668" width="51" height="51" fill="#000000"/><rect x="1127" y="668" width="51" height="51" fill="#000000"/><rect x="1535" y="668" width="51" height="51" fill="#000000"/><rect x="1688" y="668" width="51" height="51" fill="#000000"/><rect x="1739" y="668" width="51" height="51" fill="#000000"/><rect x="209" y="719" width="51" height="51" fill="#000000"/><rect x="260" y="719" width="51" height="51" fill="#000000"/><rect x="515" y="719" width="51" height="51" fill="#000000"/><rect x="566" y="719" width="51" height="51" fill="#000000"/><rect x="617" y="719" width="51" height="51" fill="#000000"/><rect x="770" y="719" width="51" height="51" fill="#000000"/><rect x="872" y="719" width="51" height="51" fill="#000000"/><rect x="974" y="719" width="51" height="51" fill="#000000"/><rect x="1025" y="719" width="51" height="51" fill="#000000"/><rect x="1127" y="719" width="51" height="51" fill="#000000"/><rect x="1178" y="719" width="51" height="51" fill="#000000"/><rect x="1229" y="719" width="51" height="51" fill="#000000"/><rect x="1280" y="719" width="51" height="51" fill="#000000"/><rect x="1382" y="719" width="51" height="51" fill="#000000"/><rect x="1484" y="719" width="51" height="51" fill="#000000"/><rect x="1586" y="719" width="51" height="51" fill="#000000"/><rect x="1637" y="719" width="51" height="51" fill="#000000"/><rect x="1739" y="719" width="51" height="51" fill="#000000"/><rect x="1790" y="719" width="51" height="51" fill="#000000"/><rect x="158" y="770" width="51" height="51" fill="#000000"/><rect x="209" y="770" width="51" height="51" fill="#000000"/><rect x="464" y="770" width="51" height="51" fill="#000000"/><rect x="515" y="770" width="51" height="51" fill="#000000"/><rect x="719" y="770" width="51" height="51" fill="#000000"/><rect x="821" y="770" width="51" height="51" fill="#000000"/><rect x="872" y="770" width="51" height="51" fill="#000000"/><rect x="1127" y="770" width="51" height="51" fill="#000000"/><rect x="1178" y="770" width="51" height="51" fill="#000000"/><rect x="1229" y="770" width="51" height="51" fill="#000000"/><rect x="1382" y="770" width="51" height="51" fill="#000000"/><rect x="1535" y="770" width="51" height="51" fill="#000000"/><rect x="1688" y="770" width="51" height="51" fill="#000000"/><rect x="1790" y="770" width="51" height="51" fill="#000000"/><rect x="158" y="821" width="51" height="51" fill="#000000"/><rect x="311" y="821" width="51" height="51" fill="#000000"/><rect x="362" y="821" width="51" height="51" fill="#000000"/><rect x="566" y="821" width="51" height="51" fill="#000000"/><rect x="668" y="821" width="51" height="51" fill="#000000"/><rect x="770" y="821" width="51" height="51" fill="#000000"/><rect x="923" y="821" width="51" height="51" fill="#000000"/><rect x="1178" y="821" width="51" height="51" fill="#000000"/><rect x="1280" y="821" width="51" height="51" fill="#000000"/><rect x="1331" y="821" width="51" height="51" fill="#000000"/><rect x="1433" y="821" width="51" height="51" fill="#000000"/><rect x="1535" y="821" width="51" height="51" fill="#000000"/><rect x="1637" y="821" width="51" height="51" fill="#000000"/><rect x="1688" y="821" width="51" height="51" fill="#000000"/><rect x="1739" y="821" width="51" height="51" fill="#000000"/><rect x="1790" y="821" width="51" height="51" fill="#000000"/><rect x="260" y="872" width="51" height="51" fill="#000000"/><rect x="362" y="872" width="51" height="51" fill="#000000"/><rect x="464" y="872" width="51" height="51" fill="#000000"/><rect x="566" y="872" width="51" height="51" fill="#000000"/><rect x="719" y="872" width="51" height="51" fill="#000000"/><rect x="770" y="872" width="51" height="51" fill="#000000"/><rect x="821" y="872" width="51" height="51" fill="#000000"/><rect x="872" y="872" width="51" height="51" fill="#000000"/><rect x="923" y="872" width="51" height="51" fill="#000000"/><rect x="1178" y="872" width="51" height="51" fill="#000000"/><rect x="1433" y="872" width="51" height="51" fill="#000000"/><rect x="1688" y="872" width="51" height="51" fill="#000000"/><rect x="1739" y="872" width="51" height="51" fill="#000000"/><rect x="209" y="923" width="51" height="51" fill="#000000"/><rect x="260" y="923" width="51" height="51" fill="#000000"/><rect x="413" y="923" width="51" height="51" fill="#000000"/><rect x="515" y="923" width="51" height="51" fill="#000000"/><rect x="566" y="923" width="51" height="51" fill="#000000"/><rect x="617" y="923" width="51" height="51" fill="#000000"/><rect x="719" y="923" width="51" height="51" fill="#000000"/><rect x="821" y="923" width="51" height="51" fill="#000000"/><rect x="974" y="923" width="51" height="51" fill="#000000"/><rect x="1127" y="923" width="51" height="51" fill="#000000"/><rect x="1178" y="923" width="51" height="51" fill="#000000"/><rect x="1229" y="923" width="51" height="51" fill="#000000"/><rect x="1382" y="923" width="51" height="51" fill="#000000"/><rect x="1484" y="923" width="51" height="51" fill="#000000"/><rect x="1586" y="923" width="51" height="51" fill="#000000"/><rect x="1637" y="923" width="51" height="51" fill="#000000"/><rect x="1739" y="923" width="51" height="51" fill="#000000"/><rect x="1790" y="923" width="51" height="51" fill="#000000"/><rect x="260" y="974" width="51" height="51" fill="#000000"/><rect x="311" y="974" width="51" height="51" fill="#000000"/><rect x="464" y="974" width="51" height="51" fill="#000000"/><rect x="668" y="974" width="51" height="51" fill="#000000"/><rect x="770" y="974" width="51" height="51" fill="#000000"/><rect x="821" y="974" width="51" height="51" fill="#000000"/><rect x="1127" y="974" width="51" height="51" fill="#000000"/><rect x="1280" y="974" width="51" height="51" fill="#000000"/><rect x="1433" y="974" width="51" height="51" fill="#000000"/><rect x="1484" y="974" width="51" height="51" fill="#000000"/><rect x="1637" y="974" width="51" height="51" fill="#000000"/><rect x="1790" y="974" width="51" height="51" fill="#000000"/><rect x="158" y="1025" width="51" height="51" fill="#000000"/><rect x="209" y="1025" width="51" height="51" fill="#000000"/><rect x="362" y="1025" width="51" height="51" fill="#000000"/><rect x="515" y="1025" width="51" height="51" fill="#000000"/><rect x="566" y="1025" width="51" height="51" fill="#000000"/><rect x="821" y="1025" width="51" height="51" fill="#000000"/><rect x="872" y="1025" width="51" height="51" fill="#000000"/><rect x="1127" y="1025" width="51" height="51" fill="#000000"/><rect x="1382" y="1025" width="51" height="51" fill="#000000"/><rect x="1586" y="1025" width="51" height="51" fill="#000000"/><rect x="1688" y="1025" width="51" height="51" fill="#000000"/><rect x="1739" y="1025" width="51" height="51" fill="#000000"/><rect x="1790" y="1025" width="51" height="51" fill="#000000"/><rect x="158" y="1076" width="51" height="51" fill="#000000"/><rect x="260" y="1076" width="51" height="51" fill="#000000"/><rect x="311" y="1076" width="51" height="51" fill="#000000"/><rect x="413" y="1076" width="51" height="51" fill="#000000"/><rect x="464" y="1076" width="51" height="51" fill="#000000"/><rect x="566" y="1076" width="51" height="51" fill="#000000"/><rect x="668" y="1076" width="51" height="51" fill="#000000"/><rect x="923" y="1076" width="51" height="51" fill="#000000"/><rect x="1076" y="1076" width="51" height="51" fill="#000000"/><rect x="1331" y="1076" width="51" height="51" fill="#000000"/><rect x="1433" y="1076" width="51" height="51" fill="#000000"/><rect x="1535" y="1076" width="51" height="51" fill="#000000"/><rect x="1688" y="1076" width="51" height="51" fill="#000000"/><rect x="1790" y="1076" width="51" height="51" fill="#000000"/><rect x="311" y="1127" width="51" height="51" fill="#000000"/><rect x="413" y="1127" width="51" height="51" fill="#000000"/><rect x="515" y="1127" width="51" height="51" fill="#000000"/><rect x="617" y="1127" width="51" height="51" fill="#000000"/><rect x="770" y="1127" width="51" height="51" fill="#000000"/><rect x="872" y="1127" width="51" height="51" fill="#000000"/><rect x="974" y="1127" width="51" height="51" fill="#000000"/><rect x="1025" y="1127" width="51" height="51" fill="#000000"/><rect x="1076" y="1127" width="51" height="51" fill="#000000"/><rect x="1127" y="1127" width="51" height="51" fill="#000000"/><rect x="1178" y="1127" width="51" height="51" fill="#000000"/><rect x="1280" y="1127" width="51" height="51" fill="#000000"/><rect x="1382" y="1127" width="51" height="51" fill="#000000"/><rect x="1484" y="1127" width="51" height="51" fill="#000000"/><rect x="1586" y="1127" width="51" height="51" fill="#000000"/><rect x="1637" y="1127" width="51" height="51" fill="#000000"/><rect x="1688" y="1127" width="51" height="51" fill="#000000"/><rect x="1790" y="1127" width="51" height="51" fill="#000000"/><rect x="209" y="1178" width="51" height="51" fill="#000000"/><rect x="311" y="1178" width="51" height="51" fill="#000000"/><rect x="362" y="1178" width="51" height="51" fill="#000000"/><rect x="464" y="1178" width="51" height="51" fill="#000000"/><rect x="668" y="1178" width="51" height="51" fill="#000000"/><rect x="719" y="1178" width="51" height="51" fill="#000000"/><rect x="821" y="1178" width="51" height="51" fill="#000000"/><rect x="872" y="1178" width="51" height="51" fill="#000000"/><rect x="1025" y="1178" width="51" height="51" fill="#000000"/><rect x="1076" y="1178" width="51" height="51" fill="#000000"/><rect x="1127" y="1178" width="51" height="51" fill="#000000"/><rect x="1178" y="1178" width="51" height="51" fill="#000000"/><rect x="1382" y="1178" width="51" height="51" fill="#000000"/><rect x="1790" y="1178" width="51" height="51" fill="#000000"/><rect x="158" y="1229" width="51" height="51" fill="#000000"/><rect x="209" y="1229" width="51" height="51" fill="#000000"/><rect x="260" y="1229" width="51" height="51" fill="#000000"/><rect x="311" y="1229" width="51" height="51" fill="#000000"/><rect x="413" y="1229" width="51" height="51" fill="#000000"/><rect x="566" y="1229" width="51" height="51" fill="#000000"/><rect x="770" y="1229" width="51" height="51" fill="#000000"/><rect x="923" y="1229" width="51" height="51" fill="#000000"/><rect x="1127" y="1229" width="51" height="51" fill="#000000"/><rect x="1178" y="1229" width="51" height="51" fill="#000000"/><rect x="1280" y="1229" width="51" height="51" fill="#000000"/><rect x="1331" y="1229" width="51" height="51" fill="#000000"/><rect x="1382" y="1229" width="51" height="51" fill="#000000"/><rect x="1535" y="1229" width="51" height="51" fill="#000000"/><rect x="1688" y="1229" width="51" height="51" fill="#000000"/><rect x="1739" y="1229" width="51" height="51" fill="#000000"/><rect x="1790" y="1229" width="51" height="51" fill="#000000"/><rect x="260" y="1280" width="51" height="51" fill="#000000"/><rect x="311" y="1280" width="51" height="51" fill="#000000"/><rect x="362" y="1280" width="51" height="51" fill="#000000"/><rect x="413" y="1280" width="51" height="51" fill="#000000"/><rect x="464" y="1280" width="51" height="51" fill="#000000"/><rect x="617" y="1280" width="51" height="51" fill="#000000"/><rect x="668" y="1280" width="51" height="51" fill="#000000"/><rect x="719" y="1280" width="51" height="51" fill="#000000"/><rect x="770" y="1280" width="51" height="51" fill="#000000"/><rect x="821" y="1280" width="51" height="51" fill="#000000"/><rect x="872" y="1280" width="51" height="51" fill="#000000"/><rect x="923" y="1280" width="51" height="51" fill="#000000"/><rect x="1076" y="1280" width="51" height="51" fill="#000000"/><rect x="1127" y="1280" width="51" height="51" fill="#000000"/><rect x="1433" y="1280" width="51" height="51" fill="#000000"/><rect x="1637" y="1280" width="51" height="51" fill="#000000"/><rect x="1688" y="1280" width="51" height="51" fill="#000000"/><rect x="1790" y="1280" width="51" height="51" fill="#000000"/><rect x="362" y="1331" width="51" height="51" fill="#000000"/><rect x="413" y="1331" width="51" height="51" fill="#000000"/><rect x="515" y="1331" width="51" height="51" fill="#000000"/><rect x="566" y="1331" width="51" height="51" fill="#000000"/><rect x="617" y="1331" width="51" height="51" fill="#000000"/><rect x="719" y="1331" width="51" height="51" fill="#000000"/><rect x="821" y="1331" width="51" height="51" fill="#000000"/><rect x="974" y="1331" width="51" height="51" fill="#000000"/><rect x="1025" y="1331" width="51" height="51" fill="#000000"/><rect x="1127" y="1331" width="51" height="51" fill="#000000"/><rect x="1178" y="1331" width="51" height="51" fill="#000000"/><rect x="1280" y="1331" width="51" height="51" fill="#000000"/><rect x="1382" y="1331" width="51" height="51" fill="#000000"/><rect x="1484" y="1331" width="51" height="51" fill="#000000"/><rect x="1586" y="1331" width="51" height="51" fill="#000000"/><rect x="1688" y="1331" width="51" height="51" fill="#000000"/><rect x="1739" y="1331" width="51" height="51" fill="#000000"/><rect x="1790" y="1331" width="51" height="51" fill="#000000"/><rect x="158" y="1382" width="51" height="51" fill="#000000"/><rect x="209" y="1382" width="51" height="51" fill="#000000"/><rect x="260" y="1382" width="51" height="51" fill="#000000"/><rect x="311" y="1382" width="51" height="51" fill="#000000"/><rect x="464" y="1382" width="51" height="51" fill="#000000"/><rect x="566" y="1382" width="51" height="51" fill="#000000"/><rect x="668" y="1382" width="51" height="51" fill="#000000"/><rect x="770" y="1382" width="51" height="51" fill="#000000"/><rect x="821" y="1382" width="51" height="51" fill="#000000"/><rect x="974" y="1382" width="51" height="51" fill="#000000"/><rect x="1025" y="1382" width="51" height="51" fill="#000000"/><rect x="1127" y="1382" width="51" height="51" fill="#000000"/><rect x="1178" y="1382" width="51" height="51" fill="#000000"/><rect x="1229" y="1382" width="51" height="51" fill="#000000"/><rect x="1280" y="1382" width="51" height="51" fill="#000000"/><rect x="1382" y="1382" width="51" height="51" fill="#000000"/><rect x="1433" y="1382" width="51" height="51" fill="#000000"/><rect x="1484" y="1382" width="51" height="51" fill="#000000"/><rect x="1535" y="1382" width="51" height="51" fill="#000000"/><rect x="1586" y="1382" width="51" height="51" fill="#000000"/><rect x="1637" y="1382" width="51" height="51" fill="#000000"/><rect x="1739" y="1382" width="51" height="51" fill="#000000"/><rect x="1790" y="1382" width="51" height="51" fill="#000000"/><rect x="566" y="1433" width="51" height="51" fill="#000000"/><rect x="821" y="1433" width="51" height="51" fill="#000000"/><rect x="872" y="1433" width="51" height="51" fill="#000000"/><rect x="974" y="1433" width="51" height="51" fill="#000000"/><rect x="1076" y="1433" width="51" height="51" fill="#000000"/><rect x="1382" y="1433" width="51" height="51" fill="#000000"/><rect x="1586" y="1433" width="51" height="51" fill="#000000"/><rect x="1688" y="1433" width="51" height="51" fill="#000000"/><rect x="1739" y="1433" width="51" height="51" fill="#000000"/><rect x="1790" y="1433" width="51" height="51" fill="#000000"/><rect x="617" y="1484" width="51" height="51" fill="#000000"/><rect x="668" y="1484" width="51" height="51" fill="#000000"/><rect x="923" y="1484" width="51" height="51" fill="#000000"/><rect x="974" y="1484" width="51" height="51" fill="#000000"/><rect x="1076" y="1484" width="51" height="51" fill="#000000"/><rect x="1127" y="1484" width="51" height="51" fill="#000000"/><rect x="1382" y="1484" width="51" height="51" fill="#000000"/><rect x="1484" y="1484" width="51" height="51" fill="#000000"/><rect x="1586" y="1484" width="51" height="51" fill="#000000"/><rect x="1637" y="1484" width="51" height="51" fill="#000000"/><rect x="1688" y="1484" width="51" height="51" fill="#000000"/><rect x="1739" y="1484" width="51" height="51" fill="#000000"/><rect x="566" y="1535" width="51" height="51" fill="#000000"/><rect x="617" y="1535" width="51" height="51" fill="#000000"/><rect x="770" y="1535" width="51" height="51" fill="#000000"/><rect x="872" y="1535" width="51" height="51" fill="#000000"/><rect x="1127" y="1535" width="51" height="51" fill="#000000"/><rect x="1178" y="1535" width="51" height="51" fill="#000000"/><rect x="1229" y="1535" width="51" height="51" fill="#000000"/><rect x="1280" y="1535" width="51" height="51" fill="#000000"/><rect x="1331" y="1535" width="51" height="51" fill="#000000"/><rect x="1382" y="1535" width="51" height="51" fill="#000000"/><rect x="1586" y="1535" width="51" height="51" fill="#000000"/><rect x="1688" y="1535" width="51" height="51" fill="#000000"/><rect x="1790" y="1535" width="51" height="51" fill="#000000"/><rect x="566" y="1586" width="51" height="51" fill="#000000"/><rect x="719" y="1586" width="51" height="51" fill="#000000"/><rect x="821" y="1586" width="51" height="51" fill="#000000"/><rect x="872" y="1586" width="51" height="51" fill="#000000"/><rect x="1127" y="1586" width="51" height="51" fill="#000000"/><rect x="1280" y="1586" width="51" height="51" fill="#000000"/><rect x="1382" y="1586" width="51" height="51" fill="#000000"/><rect x="1433" y="1586" width="51" height="51" fill="#000000"/><rect x="1484" y="1586" width="51" height="51" fill="#000000"/><rect x="1535" y="1586" width="51" height="51" fill="#000000"/><rect x="1586" y="1586" width="51" height="51" fill="#000000"/><rect x="1637" y="1586" width="51" height="51" fill="#000000"/><rect x="1739" y="1586" width="51" height="51" fill="#000000"/><rect x="668" y="1637" width="51" height="51" fill="#000000"/><rect x="770" y="1637" width="51" height="51" fill="#000000"/><rect x="923" y="1637" width="51" height="51" fill="#000000"/><rect x="974" y="1637" width="51" height="51" fill="#000000"/><rect x="1076" y="1637" width="51" height="51" fill="#000000"/><rect x="1127" y="1637" width="51" height="51" fill="#000000"/><rect x="1178" y="1637" width="51" height="51" fill="#000000"/><rect x="1280" y="1637" width="51" height="51" fill="#000000"/><rect x="1331" y="1637" width="51" height="51" fill="#000000"/><rect x="1535" y="1637" width="51" height="51" fill="#000000"/><rect x="1637" y="1637" width="51" height="51" fill="#000000"/><rect x="1688" y="1637" width="51" height="51" fill="#000000"/><rect x="1790" y="1637" width="51" height="51" fill="#000000"/><rect x="668" y="1688" width="51" height="51" fill="#000000"/><rect x="719" y="1688" width="51" height="51" fill="#000000"/><rect x="770" y="1688" width="51" height="51" fill="#000000"/><rect x="821" y="1688" width="51" height="51" fill="#000000"/><rect x="872" y="1688" width="51" height="51" fill="#000000"/><rect x="923" y="1688" width="51" height="51" fill="#000000"/><rect x="1076" y="1688" width="51" height="51" fill="#000000"/><rect x="1127" y="1688" width="51" height="51" fill="#000000"/><rect x="1280" y="1688" width="51" height="51" fill="#000000"/><rect x="1433" y="1688" width="51" height="51" fill="#000000"/><rect x="1535" y="1688" width="51" height="51" fill="#000000"/><rect x="1637" y="1688" width="51" height="51" fill="#000000"/><rect x="1688" y="1688" width="51" height="51" fill="#000000"/><rect x="566" y="1739" width="51" height="51" fill="#000000"/><rect x="719" y="1739" width="51" height="51" fill="#000000"/><rect x="821" y="1739" width="51" height="51" fill="#000000"/><rect x="1127" y="1739" width="51" height="51" fill="#000000"/><rect x="1178" y="1739" width="51" height="51" fill="#000000"/><rect x="1280" y="1739" width="51" height="51" fill="#000000"/><rect x="1382" y="1739" width="51" height="51" fill="#000000"/><rect x="1535" y="1739" width="51" height="51" fill="#000000"/><rect x="1739" y="1739" width="51" height="51" fill="#000000"/><rect x="1790" y="1739" width="51" height="51" fill="#000000"/><rect x="566" y="1790" width="51" height="51" fill="#000000"/><rect x="668" y="1790" width="51" height="51" fill="#000000"/><rect x="770" y="1790" width="51" height="51" fill="#000000"/><rect x="821" y="1790" width="51" height="51" fill="#000000"/><rect x="974" y="1790" width="51" height="51" fill="#000000"/><rect x="1076" y="1790" width="51" height="51" fill="#000000"/><rect x="1127" y="1790" width="51" height="51" fill="#000000"/><rect x="1280" y="1790" width="51" height="51" fill="#000000"/><rect x="1331" y="1790" width="51" height="51" fill="#000000"/><rect x="1433" y="1790" width="51" height="51" fill="#000000"/><rect x="1535" y="1790" width="51" height="51" fill="#000000"/><rect x="1637" y="1790" width="51" height="51" fill="#000000"/><rect x="1790" y="1790" width="51" height="51" fill="#000000"/><svg version="1.1" id="Ebene_1" x="158" y="158" width="357" height="357" viewBox="0 0 699.988 699.986" enable-background="new 0 0 699.988 699.986" xml:space="preserve" shape-rendering="auto">
<path fill="#000000" d="M600.99,0h-100h-99.997h-0.001h-99.997h-99.998h-99.998H1v99.998v99.998v99.998v99.999v99.997v99.998v99.998  h99.999h99.998h99.998h99.997h0.001h99.997h100h99.998v-99.998V499.99v-99.997v-99.999v-99.998V99.998V0H600.99z M600.99,199.996  v99.998v99.999v99.997v99.998h-100h-99.997h-0.001h-99.997h-99.998h-99.998V499.99v-99.997v-99.999v-99.998V99.998h99.998h99.998  h99.997h0.001h99.997h100V199.996z"/>
</svg>
<svg version="1.0" id="Ebene_1" x="158" y="158" width="357" height="357" viewBox="0 0 699.988 699.988" enable-background="new 0 0 699.988 699.988" xml:space="preserve" shape-rendering="auto">
<polygon fill="#000000" points="399.994,199.997 399.992,199.997 299.996,199.997 199.998,199.997 199.998,299.994 199.998,399.994   199.998,499.991 299.996,499.991 399.992,499.991 399.994,499.991 499.99,499.991 499.99,399.994 499.99,299.994 499.99,199.997 "/>
</svg>
<svg version="1.1" id="Ebene_1" x="1484" y="158" width="357" height="357" viewBox="0 0 699.988 699.986" enable-background="new 0 0 699.988 699.986" xml:space="preserve" shape-rendering="auto">
<path fill="#000000" d="M600.99,0h-100h-99.997h-0.001h-99.997h-99.998h-99.998H1v99.998v99.998v99.998v99.999v99.997v99.998v99.998  h99.999h99.998h99.998h99.997h0.001h99.997h100h99.998v-99.998V499.99v-99.997v-99.999v-99.998V99.998V0H600.99z M600.99,199.996  v99.998v99.999v99.997v99.998h-100h-99.997h-0.001h-99.997h-99.998h-99.998V499.99v-99.997v-99.999v-99.998V99.998h99.998h99.998  h99.997h0.001h99.997h100V199.996z"/>
</svg>
<svg version="1.0" id="Ebene_1" x="1484" y="158" width="357" height="357" viewBox="0 0 699.988 699.988" enable-background="new 0 0 699.988 699.988" xml:space="preserve" shape-rendering="auto">
<polygon fill="#000000" points="399.994,199.997 399.992,199.997 299.996,199.997 199.998,199.997 199.998,299.994 199.998,399.994   199.998,499.991 299.996,499.991 399.992,499.991 399.994,499.991 499.99,499.991 499.99,399.994 499.99,299.994 499.99,199.997 "/>
</svg>
<svg version="1.1" id="Ebene_1" x="158" y="1484" width="357" height="357" viewBox="0 0 699.988 699.986" enable-background="new 0 0 699.988 699.986" xml:space="preserve" shape-rendering="auto">
<path fill="#000000" d="M600.99,0h-100h-99.997h-0.001h-99.997h-99.998h-99.998H1v99.998v99.998v99.998v99.999v99.997v99.998v99.998  h99.999h99.998h99.998h99.997h0.001h99.997h100h99.998v-99.998V499.99v-99.997v-99.999v-99.998V99.998V0H600.99z M600.99,199.996  v99.998v99.999v99.997v99.998h-100h-99.997h-0.001h-99.997h-99.998h-99.998V499.99v-99.997v-99.999v-99.998V99.998h99.998h99.998  h99.997h0.001h99.997h100V199.996z"/>
</svg>
<svg version="1.0" id="Ebene_1" x="158" y="1484" width="357" height="357" viewBox="0 0 699.988 699.988" enable-background="new 0 0 699.988 699.988" xml:space="preserve" shape-rendering="auto">
<polygon fill="#000000" points="399.994,199.997 399.992,199.997 299.996,199.997 199.998,199.997 199.998,299.994 199.998,399.994   199.998,499.991 299.996,499.991 399.992,499.991 399.994,499.991 499.99,499.991 499.99,399.994 499.99,299.994 499.99,199.997 "/>
</svg>
</svg>

<path id="FrameBody" class="frame-color" d="M13.7,346.6h251.7c7.6,0,13.7-6.2,13.7-13.7V13.7c0-7.6-6.2-13.7-13.7-13.7H13.8C6.2,0,0.1,6.2,0,13.7
	v319.2C0,340.5,6.2,346.6,13.7,346.6z M10.6,17.9c0-4.1,3.3-7.4,7.4-7.4h243.2c4.1,0,7.4,3.3,7.4,7.4v243.3c0,4.1-3.3,7.4-7.4,7.4
	H18c-4.1,0-7.4-3.3-7.4-7.4V17.9z"/>

	<g fill="#FFF"><g transform="translate(37, 255) scale(1.5)"><path d="M10.75 53.60Q7.80 53.65 5 53Q2.20 52.35 0 51.30L0 47.50L1 47Q3.05 48.25 5.22 48.92Q7.40 49.60 10.20 49.60Q13.95 49.60 16.10 48.30Q18.25 47 18.25 44.40Q18.25 42.60 17.30 41.38Q16.35 40.15 14.75 39.25Q13.15 38.35 11.28 37.58Q9.40 36.80 7.50 35.92Q5.60 35.05 4 33.85Q2.40 32.65 1.45 30.90Q0.50 29.15 0.50 26.60Q0.50 23.35 2.08 21.32Q3.65 19.30 6.20 18.35Q8.75 17.40 11.65 17.40Q13.65 17.40 15.90 17.82Q18.15 18.25 20.35 19.20L20.35 23L19.35 23.50Q17.65 22.45 15.78 21.92Q13.90 21.40 11.95 21.40Q9.90 21.40 8.30 21.97Q6.70 22.55 5.80 23.67Q4.90 24.80 4.90 26.50Q4.90 28.25 5.85 29.45Q6.80 30.65 8.40 31.52Q10 32.40 11.90 33.17Q13.80 33.95 15.68 34.83Q17.55 35.70 19.15 36.92Q20.75 38.15 21.70 39.92Q22.65 41.70 22.65 44.25Q22.65 46.80 21.68 48.58Q20.70 50.35 19.03 51.45Q17.35 52.55 15.23 53.08Q13.10 53.60 10.75 53.60ZM39.35 49.55L39.35 53Q38.85 53.25 38.20 53.42Q37.55 53.60 36.50 53.60Q35 53.60 33.63 53.13Q32.25 52.65 31.35 51.30Q30.45 49.95 30.45 47.40L30.45 20.60L29.95 16.60L35.15 16.60L34.65 20.60L34.65 47.35Q34.65 48.45 35.18 49.02Q35.70 49.60 36.85 49.60Q37.40 49.60 37.80 49.45Q38.20 49.30 38.55 49.05L39.35 49.55ZM50.35 23.30Q49.15 23.30 48.30 22.52Q47.45 21.75 47.45 20.40Q47.45 19.05 48.30 18.27Q49.15 17.50 50.35 17.50Q51.55 17.50 52.40 18.27Q53.25 19.05 53.25 20.40Q53.25 21.75 52.40 22.52Q51.55 23.30 50.35 23.30M48.55 53L49.05 49L49.05 30.90L43.85 30.90L43.85 27.50L53.75 27.50L53.25 31.50L53.25 49L53.75 53L48.55 53ZM72 53.60Q68.80 53.60 66.25 52.05Q63.70 50.50 62.22 47.50Q60.75 44.50 60.75 40.25Q60.75 35.75 62.30 32.77Q63.85 29.80 66.38 28.35Q68.90 26.90 71.80 26.90Q73.25 26.90 74.40 27.17Q75.55 27.45 76.35 27.75L81.25 31.10L81.25 34.10Q80.35 33.05 79.17 32.25Q78 31.45 76.50 30.97Q75 30.50 73 30.50Q70.20 30.50 68.45 31.55Q66.70 32.60 65.88 34.77Q65.05 36.95 65.05 40.25Q65.05 45.10 66.92 47.55Q68.80 50 73.10 50Q75.15 50 76.50 49.50Q77.85 49 78.72 48.23Q79.60 47.45 80.10 46.55L80.50 49.55L76.20 53Q75.25 53.25 74.20 53.42Q73.15 53.60 72 53.60M80.20 53L79.45 50.40L79.45 20.60L78.95 16.60L84.15 16.60L83.65 20.60L83.65 49L84.15 53L80.20 53ZM90.15 40.20Q90.15 35.25 91.78 32.33Q93.40 29.40 96.05 28.15Q98.70 26.90 101.70 26.90Q105.15 26.90 107.48 28.27Q109.80 29.65 110.98 32.17Q112.15 34.70 112.15 38.20Q112.15 39.20 112.05 40.05Q111.95 40.90 111.80 41.65L92.35 41.65L92.35 40.75L96.85 38.25L107.90 38.25Q107.90 36 107.43 34.25Q106.95 32.50 105.60 31.50Q104.25 30.50 101.65 30.50Q98.95 30.50 97.38 31.67Q95.80 32.85 95.13 34.95Q94.45 37.05 94.45 39.85Q94.45 43.20 95.20 45.25Q95.95 47.30 97.20 48.30Q98.45 49.30 99.95 49.65Q101.45 50 102.95 50Q105.30 50 107.03 49.52Q108.75 49.05 110.10 48.25L110.90 48.75L110.90 52.35Q109.35 52.90 107.48 53.25Q105.60 53.60 103.40 53.60Q101 53.60 98.63 53.02Q96.25 52.45 94.35 51Q92.45 49.55 91.30 46.92Q90.15 44.30 90.15 40.20ZM134.80 28.10L134.80 31.90L134 32.40Q132.60 31.50 130.90 31Q129.20 30.50 127 30.50Q125.50 30.50 124.28 30.77Q123.05 31.05 122.33 31.72Q121.60 32.40 121.60 33.60Q121.60 35.05 122.65 35.90Q123.70 36.75 125.38 37.35Q127.05 37.95 128.90 38.55Q130.75 39.15 132.43 40.05Q134.10 40.95 135.15 42.45Q136.20 43.95 136.20 46.35Q136.20 49.20 134.72 50.77Q133.25 52.35 130.85 52.98Q128.45 53.60 125.75 53.60Q123 53.60 120.90 53.15Q118.80 52.70 117.30 52.20L117.30 48.50L118.10 48Q119.70 48.95 121.55 49.48Q123.40 50 126.10 50Q127.65 50 129 49.75Q130.35 49.50 131.22 48.75Q132.10 48 132.10 46.55Q132.10 44.90 131.05 43.95Q130 43 128.32 42.40Q126.65 41.80 124.78 41.25Q122.90 40.70 121.22 39.88Q119.55 39.05 118.50 37.60Q117.45 36.15 117.45 33.80Q117.45 31.65 118.33 30.30Q119.20 28.95 120.67 28.20Q122.15 27.45 123.92 27.17Q125.70 26.90 127.50 26.90Q129.70 26.90 131.53 27.22Q133.35 27.55 134.80 28.10Z"/></g></g>
</svg>
