<?xml version="1.0" encoding="utf-8"?>
<!-- Generator: Adobe Illustrator 23.0.4, SVG Export Plug-In . SVG Version: 6.00 Build 0)  -->
<svg version="1.1" id="arrow-frame" xmlns="http://www.w3.org/2000/svg" xmlns:xlink="http://www.w3.org/1999/xlink" x="0px"
	 y="0px" viewBox="0 0 343.1 395.1" style="enable-background:new 0 0 343.1 395.1;" xml:space="preserve">
<style type="text/css">
	.frame-color{fill:#000000;}
	.background-color{fill:#FFFFFF;}
	.text-color{fill:#FFFFFF;}
	.outline{fill:#E6E6E6;}
</style>
<path id="WhiteBackground" class="background-color" d="M328.4,1H76.7C69.1,1,63,7.2,63,14.7v251.7c0,7.6,6.2,13.7,13.7,13.7h251.6
	c7.6,0,13.7-6.2,13.8-13.7V14.7C342.1,7.1,335.9,1,328.4,1z"/>
<path id="Outline" class="outline" d="M328.3,281.1H76.7c-8.1,0-14.7-6.6-14.7-14.7V14.7C62,6.6,68.6,0,76.7,0h251.7
	c8.1,0,14.7,6.6,14.7,14.7v251.7C343,274.5,336.4,281.1,328.3,281.1z M76.7,2C69.7,2,64,7.7,64,14.7v251.7c0,7,5.7,12.7,12.7,12.7
	h251.6c7,0,12.7-5.7,12.8-12.7V14.7c0-7-5.7-12.7-12.7-12.7H76.7z"/>

	<path id="CallToActionArrow" class="frame-color" d="M43.2,177.1L43.2,177.1
	c0.2-3.4,0.5-6.9,0.8-10.3c0.4-3.4,0.8-6.8,1.4-10.1c0.6-3.3,1.3-6.6,2.1-9.8c0.9-3.1,1.9-6.2,3.2-8.7l0,0c0.1-0.3,0.2-0.7,0.3-1.1
	c0.6-3.2-1.4-6.3-4.6-6.9l-0.3-0.1c-0.4-0.1-0.6-0.1-0.9-0.1c-0.3,0-0.5-0.1-0.8-0.1c-0.5,0-1-0.1-1.5-0.1c-1,0-2,0.1-3,0.1
	c-2,0.2-3.9,0.4-5.8,0.7c-3.8,0.6-7.6,1.4-11.2,2.4c-3.6,1.1-7.2,2.3-10.6,3.8c-1.7,0.7-3.4,1.6-5.1,2.3c-1.7,0.8-3.3,1.8-4.9,2.6
	c-0.5,0.3-0.8,0.8-0.6,1.4c0.2,0.7,0.8,1.1,1.5,0.9h0.1c1.8-0.4,3.5-0.9,5.2-1.3c1.8-0.4,3.5-0.8,5.2-1c3.5-0.7,7-1,10.5-1.2
	c2.2-0.1,4.5-0.1,6.7-0.1c-4.6,5.4-8.6,11.2-11.9,17.2c-4.5,8.1-8,16.6-10.8,25.3C2.7,200.3,0,218.4,0,236.5c0,18,2.7,36.1,8.3,53.2
	c5.7,17.1,14.3,33.1,25.6,47c0.5,0.6,1.4,0.8,2.1,0.3c0.7-0.5,0.8-1.5,0.3-2.1l0,0c-10.4-14-18.2-29.9-22.9-46.6s-6.5-34.2-5.8-51.4
	c0.7-17.3,4-34.4,9.9-50.5c3-8,6.6-15.8,11-23c2.8-4.6,5.9-8.9,9.4-12.8c0,2,0,3.9,0.1,5.9c0.2,3.6,0.4,7.1,0.8,10.6
	c0.4,3.5,0.8,7,1.4,10.5c0.1,0.7,0.7,1.3,1.5,1.4C42.4,178.7,43.2,178,43.2,177.1z"></path>
	<g transform="rotate(-5) translate(-45 15)">
		
	</g>
	<g fill="#000000"><g transform="translate(35, 310) scale(1.5) rotate(-10)"><path d="M8.15 44.15Q6.80 44.15 5.35 43.15Q3.90 42.15 2.70 40.67Q1.50 39.20 0.75 37.67Q0 36.15 0 35.10Q0 34.15 0.45 34.15Q0.60 34.15 0.98 34.98Q1.35 35.80 1.92 37Q2.50 38.20 3.28 39.40Q4.05 40.60 5.10 41.42Q6.15 42.25 7.40 42.25Q8.55 42.25 9.18 41.42Q9.80 40.60 10.15 39.40Q10.50 38.20 10.70 37.10Q11.45 32.75 12 29.20Q12.55 25.65 13 22.13Q13.45 18.60 13.80 14.45Q13.70 14.40 13.70 13.95Q13.70 13.45 14 11.60L8 11.60Q7.50 11.60 7.50 11.25Q7.50 10.90 7.92 10.48Q8.35 10.05 8.85 10.05L14.55 10.05Q15.30 8.65 17 8.65Q17.75 8.65 17.75 9.15L17.75 9.25L17.40 10Q19.15 10 20.63 9.98Q22.10 9.95 22.80 9.90Q23.10 9.90 23.10 10.20Q23.10 10.50 22.65 10.97Q22.20 11.45 21.20 11.60L16.75 11.60L16.60 12.15Q16.25 13.60 15.58 17.02Q14.90 20.45 14.40 25.20Q14.15 27.70 13.90 30.35Q13.65 33 13.25 35.45Q12.85 37.90 12.23 39.88Q11.60 41.85 10.63 43Q9.65 44.15 8.15 44.15ZM20.65 43.45Q19.40 43.45 18.58 42.42Q17.75 41.40 17.75 39.25Q17.75 38.75 17.80 38.17Q17.85 37.60 17.95 36.95Q18.10 36.10 18.58 34.48Q19.05 32.85 19.80 30.95Q20.55 29.05 21.53 27.32Q22.50 25.60 23.68 24.50Q24.85 23.40 26.20 23.40L26.55 23.40Q26.55 22.75 26.95 22.22Q27.35 21.70 28.05 21.70Q28.60 21.75 28.85 22.63Q29.10 23.50 29.28 24.63Q29.45 25.75 29.80 26.63Q30.15 27.50 30.90 27.60Q31.85 27.75 31.85 28.15Q31.85 28.55 30.90 29.05Q30.55 29.20 30.25 29.25Q29.95 29.30 29.75 29.30Q29.75 32.45 28.85 35.05Q27.95 37.65 26.53 39.52Q25.10 41.40 23.55 42.42Q22.00 43.45 20.65 43.45M21.40 41.95Q22.30 41.95 23.48 40.92Q24.65 39.90 25.75 38.08Q26.85 36.25 27.60 33.90Q28.35 31.55 28.35 28.90Q27.95 28.65 27.58 27.85Q27.20 27.05 26.90 26.32Q26.60 25.60 26.35 25.60Q25.65 25.60 24.85 26.57Q24.05 27.55 23.30 29.02Q22.55 30.50 21.90 32.15Q21.25 33.80 20.80 35.23Q20.35 36.65 20.20 37.40Q20.10 38.05 20.05 38.58Q20.00 39.10 20.00 39.50Q20.00 41.95 21.40 41.95ZM34.75 42.90Q32.70 42.90 31.70 41.95L31.50 42.40Q31.45 42.55 31.20 42.55Q30.80 42.55 30.23 41.98Q29.65 41.40 29.65 40.55Q29.65 39.80 30.85 36.75Q31.05 36.20 31.33 36.15Q31.60 36.10 31.70 35.80Q33.65 30.75 35.85 24.65Q38.05 18.55 40.25 10.95Q40.30 10.95 40.68 10.65Q41.05 10.35 41.55 10.05Q42.05 9.75 42.40 9.75Q42.90 9.75 42.90 10.50Q42.70 11.30 42 13.27Q41.30 15.25 40.35 17.88Q39.40 20.50 38.35 23.32Q37.30 26.15 36.30 28.73Q35.30 31.30 34.55 33.15Q35.05 32.45 35.95 31.23Q36.85 30 37.98 28.63Q39.10 27.25 40.28 26.02Q41.45 24.80 42.50 24.02Q43.55 23.25 44.25 23.25Q45.25 23.25 45.25 25.10L45.25 25.45Q45.20 26.25 44.95 27.38Q44.70 28.50 44.30 29.95Q45.40 29.40 45.80 29.40Q45.95 29.40 45.95 29.50Q45.95 29.70 45.33 30.23Q44.70 30.75 44.05 31Q43.25 33.60 42.40 35.83Q41.55 38.05 40.25 39.50Q39.90 39.90 39.10 40.48Q38.30 41.05 37.38 41.60Q36.45 42.15 35.73 42.52Q35 42.90 34.75 42.90M34.30 35.90Q36.05 34.45 38.23 33.17Q40.40 31.90 41.95 31.10Q42.50 29.65 42.65 28.52Q42.80 27.40 42.85 26.75Q42.85 25.70 42.35 25.70Q41.55 25.70 39.40 28.48Q37.25 31.25 34.30 35.90M35.10 41.30Q36.30 41.30 37.35 40.27Q38.40 39.25 39.25 37.75Q40.10 36.25 40.68 34.73Q41.25 33.20 41.55 32.20Q39.50 33.30 37.43 34.48Q35.35 35.65 33.95 37.15Q33.55 37.95 33.25 38.65Q32.95 39.35 32.65 39.95Q33.85 41.30 35.10 41.30ZM45.95 43.35Q45.55 43.35 45.30 43.02Q45.05 42.70 45.05 42.35Q45.05 41.75 45.60 41.75Q46.20 41.75 47.43 41.50Q48.65 41.25 49.98 40.83Q51.30 40.40 52.25 39.80Q53.20 39.20 53.20 38.50Q53.20 37.85 52.48 37.17Q51.75 36.50 50.70 35.80Q49.65 35.10 48.58 34.35Q47.50 33.60 46.78 32.77Q46.05 31.95 46.05 31Q46.05 30.60 46.18 30.20Q46.30 29.80 46.65 29.40Q48.15 27.50 49.93 26.32Q51.70 25.15 53.25 24.52Q54.80 23.90 55.60 23.60Q55.85 23.50 56.20 23.43Q56.55 23.35 56.90 23.35Q57.60 23.35 58.15 23.77Q58.70 24.20 58.70 25.35Q58.65 25.85 58.30 26.63Q57.95 27.40 57.43 28.20Q56.90 29 56.40 29.52Q55.90 30.05 55.55 30.05Q55.35 30.05 55.35 29.75Q55.35 29.30 55.63 28.60Q55.90 27.90 56.18 27.23Q56.45 26.55 56.45 26.15Q56.45 25.40 55.55 25.40Q55.20 25.40 54.78 25.47Q54.35 25.55 53.90 25.65Q53.60 25.70 52.75 26.07Q51.90 26.45 50.95 27.05Q50.00 27.65 49.30 28.42Q48.60 29.20 48.60 30.10Q48.60 30.65 48.85 31.10Q49.45 32.30 50.50 32.98Q51.55 33.65 52.60 34.17Q53.65 34.70 54.38 35.33Q55.10 35.95 55.10 37.10Q55.10 38.30 54.10 39.42Q53.10 40.55 51.58 41.42Q50.05 42.30 48.53 42.83Q47.00 43.35 45.95 43.35ZM82.00 42.60Q77.65 42.60 74.40 40.75Q71.15 38.90 69.33 35.73Q67.50 32.55 67.50 28.65Q67.50 24.55 69.28 21.22Q71.05 17.90 73.80 15.42Q76.55 12.95 79.55 11.35Q79.20 11.35 78.35 11.40Q77.50 11.45 76.55 11.50Q75.60 11.55 74.90 11.55Q74.05 11.55 73.85 11.42Q73.65 11.30 73.65 11.15Q73.65 10.75 74.50 10.52Q75.35 10.30 76.70 10.17Q78.05 10.05 79.53 10Q81.00 9.95 82.25 9.95L83.55 9.95Q85.60 9.35 88.10 8.95Q90.60 8.55 93.05 8.55Q95.85 8.55 98.23 9.23Q100.60 9.90 102.08 11.55Q103.55 13.20 103.55 16.15Q103.55 17.10 103.30 18.15Q103.05 19.20 102.65 20.30Q103.40 21.65 103.75 23Q104.10 24.35 104.10 25.65Q104.10 28.35 102.80 30.85Q101.50 33.35 99.28 35.50Q97.05 37.65 94.20 39.23Q91.35 40.80 88.23 41.70Q85.10 42.60 82.00 42.60M101.25 18.35Q101.55 17.05 101.55 15.90Q101.55 13.50 100.48 12.15Q99.40 10.80 97.63 10.25Q95.85 9.70 93.65 9.70Q92.00 9.70 90.25 9.95Q88.50 10.20 86.85 10.60Q89.90 10.90 92.68 11.88Q95.45 12.85 97.70 14.45Q99.95 16.05 101.25 18.35M80.65 41.20Q83.30 41.20 86.23 40.40Q89.15 39.60 91.95 38.15Q94.75 36.70 97.00 34.75Q99.25 32.80 100.60 30.45Q101.95 28.10 101.95 25.55Q101.95 24.15 101.50 22.75Q100.90 24.30 99.68 26.18Q98.45 28.05 96.88 29.92Q95.30 31.80 93.60 33.38Q91.90 34.95 90.35 35.90Q88.80 36.85 87.65 36.85Q86.10 36.85 85.75 34.90Q85.75 34 86.03 32.58Q86.30 31.15 86.70 29.65Q87.10 28.15 87.40 27.15Q86.65 28.15 85.48 29.70Q84.30 31.25 82.93 32.77Q81.55 34.30 80.20 35.35Q78.85 36.40 77.80 36.40Q76.60 36.40 76.60 34.60Q76.60 33.20 77.15 31.13Q77.70 29.05 78.60 26.80Q79.50 24.55 80.58 22.57Q81.65 20.60 82.78 19.35Q83.90 18.10 84.85 18.10L85.00 18.10L85.55 17.70Q85.80 17.40 86.18 17.30Q86.55 17.20 86.95 17.20Q87.95 17.20 89.05 17.60Q90.15 18 90.55 18Q90.90 18 91.08 17.60Q91.25 17.20 91.85 17.20Q92.55 17.20 92.83 17.50Q93.10 17.80 93.10 18.25Q93.10 19 92.68 19.92Q92.25 20.85 92.00 21.45Q91.95 21.65 91.58 21.77Q91.20 21.90 91.10 22.10Q90.20 24.60 89.58 27.02Q88.95 29.45 88.60 31.20Q88.25 32.95 88.25 33.40Q88.25 34.95 89.15 34.95Q89.90 34.95 91.13 33.90Q92.35 32.85 93.78 31.15Q95.20 29.45 96.58 27.50Q97.95 25.55 99.03 23.72Q100.10 21.90 100.55 20.65Q98.90 17.50 96.10 15.60Q93.30 13.70 89.95 12.77Q86.60 11.85 83.20 11.70Q80.40 12.60 77.93 14.45Q75.45 16.30 73.55 18.75Q71.65 21.20 70.58 23.97Q69.50 26.75 69.50 29.55Q69.50 32.55 70.73 35.20Q71.95 37.85 74.43 39.52Q76.90 41.20 80.65 41.20M79.40 34.05Q79.90 34.05 80.73 33.38Q81.55 32.70 82.53 31.65Q83.50 30.60 84.38 29.55Q85.25 28.50 85.88 27.67Q86.50 26.85 86.65 26.65Q87.45 25.35 88.23 23.82Q89.00 22.30 89.50 21.02Q90.00 19.75 90.00 19.25Q90.00 18.95 89.75 18.95L89.60 18.95Q89.10 19 88.63 18.88Q88.15 18.75 87.55 18.75Q86.80 18.75 85.85 18.95Q85.40 19.05 84.55 20.17Q83.70 21.30 82.73 23Q81.75 24.70 80.88 26.63Q80.00 28.55 79.45 30.30Q78.90 32.05 78.90 33.20Q78.90 34.05 79.40 34.05ZM126.45 42.65Q124.35 42.65 123.08 40.60Q121.80 38.55 121.23 35.25Q120.65 31.95 120.65 28.20Q120.65 24.80 121.03 21.45Q121.40 18.10 122.05 15.40Q121.70 15.35 121.70 14.65Q121.70 12.70 122.40 11.47Q123.10 10.25 124.00 9.65Q124.90 9.05 125.50 9.05Q126.75 9.05 126.75 9.85Q126.75 10.05 126.60 10.30Q126.00 11.05 125.48 12.72Q124.95 14.40 124.53 16.57Q124.10 18.75 123.80 20.95Q123.50 23.15 123.35 25.02Q123.20 26.90 123.20 27.95Q123.20 31.60 123.58 34.45Q123.95 37.30 124.88 38.92Q125.80 40.55 127.50 40.55Q128.60 40.55 130 39.67Q131.40 38.80 133.23 36.58Q135.05 34.35 137.30 30.35Q138.60 28 139.80 25.18Q141 22.35 141.93 19.50Q142.85 16.65 143.38 14.25Q143.90 11.85 143.90 10.40Q143.90 9.55 143.78 9.07Q143.65 8.60 143.65 8.30Q143.65 8.10 143.93 7.82Q144.20 7.55 145.05 7.55Q145.65 7.55 145.88 8.05Q146.10 8.55 146.10 9.30Q146.10 10.40 145.60 12.45Q145.10 14.50 144.28 17.02Q143.45 19.55 142.45 22.20Q141.45 24.85 140.43 27.20Q139.40 29.55 138.50 31.25Q135.85 35.70 133.60 38.17Q131.35 40.65 129.55 41.65Q127.75 42.65 126.45 42.65ZM142.15 42.65Q140.95 42.65 140.95 40.85Q140.95 39.45 141.50 37.38Q142.05 35.30 142.95 33.05Q143.85 30.80 144.93 28.82Q146 26.85 147.13 25.60Q148.25 24.35 149.20 24.35L149.35 24.35L149.90 23.95Q150.15 23.65 150.53 23.55Q150.90 23.45 151.30 23.45Q152.30 23.45 153.40 23.85Q154.50 24.25 154.90 24.25Q155.25 24.25 155.43 23.85Q155.60 23.45 156.20 23.45Q156.90 23.45 157.18 23.75Q157.45 24.05 157.45 24.55Q157.45 25.25 157.05 26.18Q156.65 27.10 156.40 27.70Q156.35 27.90 155.95 28.02Q155.55 28.15 155.45 28.35Q154.65 30.65 154 33.02Q153.35 35.40 153 37.15Q152.65 38.90 152.65 39.30Q152.65 40.55 153.35 40.55Q153.95 40.55 154.65 40.02Q155.35 39.50 156.03 38.85Q156.70 38.20 157.15 37.67Q157.60 37.15 157.65 37.15Q157.75 37.15 157.75 37.35Q157.75 37.55 157.60 37.95Q157.45 38.35 157.25 38.50Q156.75 38.95 155.70 39.88Q154.65 40.80 153.45 41.60Q152.25 42.40 151.35 42.40Q150.30 42.40 150.10 41.15Q150.10 40.25 150.40 38.83Q150.70 37.40 151.08 35.90Q151.45 34.40 151.75 33.40Q151 34.40 149.83 35.95Q148.65 37.50 147.28 39.02Q145.90 40.55 144.55 41.60Q143.20 42.65 142.15 42.65M143.75 40.30Q144.25 40.30 145.08 39.63Q145.90 38.95 146.88 37.90Q147.85 36.85 148.72 35.80Q149.60 34.75 150.22 33.92Q150.85 33.10 151 32.90Q151.80 31.60 152.58 30.07Q153.35 28.55 153.85 27.27Q154.35 26 154.35 25.50Q154.35 25.20 154.10 25.20L153.95 25.20Q153.45 25.20 152.93 25.10Q152.40 25 151.70 25Q151 25 150.20 25.20Q149.75 25.30 148.93 26.43Q148.10 27.55 147.13 29.25Q146.15 30.95 145.28 32.88Q144.40 34.80 143.83 36.55Q143.25 38.30 143.25 39.45Q143.25 40.30 143.75 40.30ZM158.70 43.35Q158.30 43.35 158.05 43.02Q157.80 42.70 157.80 42.35Q157.80 41.75 158.35 41.75Q158.95 41.75 160.17 41.50Q161.40 41.25 162.72 40.83Q164.05 40.40 165 39.80Q165.95 39.20 165.95 38.50Q165.95 37.85 165.22 37.17Q164.50 36.50 163.45 35.80Q162.40 35.10 161.32 34.35Q160.25 33.60 159.53 32.77Q158.80 31.95 158.80 31Q158.80 30.60 158.92 30.20Q159.05 29.80 159.40 29.40Q160.90 27.50 162.67 26.32Q164.45 25.15 166 24.52Q167.55 23.90 168.35 23.60Q168.60 23.50 168.95 23.43Q169.30 23.35 169.65 23.35Q170.35 23.35 170.90 23.77Q171.45 24.20 171.45 25.35Q171.40 25.85 171.05 26.63Q170.70 27.40 170.17 28.20Q169.65 29 169.15 29.52Q168.65 30.05 168.30 30.05Q168.10 30.05 168.10 29.75Q168.10 29.30 168.38 28.60Q168.65 27.90 168.92 27.23Q169.20 26.55 169.20 26.15Q169.20 25.40 168.30 25.40Q167.95 25.40 167.53 25.47Q167.10 25.55 166.65 25.65Q166.35 25.70 165.50 26.07Q164.65 26.45 163.70 27.05Q162.75 27.65 162.05 28.42Q161.35 29.20 161.35 30.10Q161.35 30.65 161.60 31.10Q162.20 32.30 163.25 32.98Q164.30 33.65 165.35 34.17Q166.40 34.70 167.13 35.33Q167.85 35.95 167.85 37.10Q167.85 38.30 166.85 39.42Q165.85 40.55 164.32 41.42Q162.80 42.30 161.28 42.83Q159.75 43.35 158.70 43.35ZM173.05 42.90Q171.75 42.90 170.87 42.05Q170.00 41.20 170.00 39.35Q170.00 37.55 170.65 35.33Q171.30 33.10 172.30 30.98Q173.30 28.85 174.32 27.32Q175.35 25.80 176.15 25.45Q177.70 24.90 178.55 24.32Q179.40 23.75 180.65 23.75Q181.65 23.75 182.32 24.25Q183.00 24.75 183.00 26.10Q183.00 26.30 183.00 26.47Q183.00 26.65 182.95 26.90Q182.80 27.80 182.35 28.30Q181.90 28.80 181.50 28.80Q180.90 28.80 180.90 27.90Q180.90 27.40 181.10 26.77Q181.30 26.15 181.30 25.65Q181.30 24.85 180.45 24.85Q180.00 24.85 179.22 25.27Q178.45 25.70 177.72 26.25Q177.00 26.80 176.65 27.15Q176.25 27.55 175.50 29Q174.75 30.45 173.97 32.40Q173.20 34.35 172.65 36.27Q172.10 38.20 172.10 39.55Q172.10 41.40 173.55 41.40Q175.15 41.40 176.50 40.52Q177.85 39.65 178.92 38.52Q180.00 37.40 180.65 36.52Q181.30 35.65 181.45 35.60Q181.70 35.70 181.70 35.95Q181.70 36.45 180.97 37.58Q180.25 38.70 179.02 39.92Q177.80 41.15 176.25 42.02Q174.70 42.90 173.05 42.90ZM185.30 43.45Q184.05 43.45 183.22 42.42Q182.40 41.40 182.40 39.25Q182.40 38.75 182.45 38.17Q182.50 37.60 182.60 36.95Q182.75 36.10 183.22 34.48Q183.70 32.85 184.45 30.95Q185.20 29.05 186.17 27.32Q187.15 25.60 188.32 24.50Q189.50 23.40 190.85 23.40L191.20 23.40Q191.20 22.75 191.60 22.22Q192 21.70 192.70 21.70Q193.25 21.75 193.50 22.63Q193.75 23.50 193.92 24.63Q194.10 25.75 194.45 26.63Q194.80 27.50 195.55 27.60Q196.50 27.75 196.50 28.15Q196.50 28.55 195.55 29.05Q195.20 29.20 194.90 29.25Q194.60 29.30 194.40 29.30Q194.40 32.45 193.50 35.05Q192.60 37.65 191.17 39.52Q189.75 41.40 188.20 42.42Q186.65 43.45 185.30 43.45M186.05 41.95Q186.95 41.95 188.13 40.92Q189.30 39.90 190.40 38.08Q191.50 36.25 192.25 33.90Q193 31.55 193 28.90Q192.60 28.65 192.22 27.85Q191.85 27.05 191.55 26.32Q191.25 25.60 191 25.60Q190.30 25.60 189.50 26.57Q188.70 27.55 187.95 29.02Q187.20 30.50 186.55 32.15Q185.90 33.80 185.45 35.23Q185 36.65 184.85 37.40Q184.75 38.05 184.70 38.58Q184.65 39.10 184.65 39.50Q184.65 41.95 186.05 41.95Z"/></g></g>


<svg xmlns="http://www.w3.org/2000/svg" xmlns:xlink="http://www.w3.org/1999/xlink" version="1.1" width="268" height="268" viewBox="0 0 2000 2000" x="68" y="6.1" shape-rendering="crispEdges"><defs/><rect x="0" y="0" width="2000" height="2000" fill="#ffffff"/><rect x="609" y="149" width="46" height="46" fill="#000000"/><rect x="701" y="149" width="46" height="46" fill="#000000"/><rect x="747" y="149" width="46" height="46" fill="#000000"/><rect x="839" y="149" width="46" height="46" fill="#000000"/><rect x="977" y="149" width="46" height="46" fill="#000000"/><rect x="1023" y="149" width="46" height="46" fill="#000000"/><rect x="1115" y="149" width="46" height="46" fill="#000000"/><rect x="1161" y="149" width="46" height="46" fill="#000000"/><rect x="1207" y="149" width="46" height="46" fill="#000000"/><rect x="1253" y="149" width="46" height="46" fill="#000000"/><rect x="1437" y="149" width="46" height="46" fill="#000000"/><rect x="517" y="195" width="46" height="46" fill="#000000"/><rect x="609" y="195" width="46" height="46" fill="#000000"/><rect x="747" y="195" width="46" height="46" fill="#000000"/><rect x="793" y="195" width="46" height="46" fill="#000000"/><rect x="839" y="195" width="46" height="46" fill="#000000"/><rect x="931" y="195" width="46" height="46" fill="#000000"/><rect x="977" y="195" width="46" height="46" fill="#000000"/><rect x="1069" y="195" width="46" height="46" fill="#000000"/><rect x="1161" y="195" width="46" height="46" fill="#000000"/><rect x="1299" y="195" width="46" height="46" fill="#000000"/><rect x="1345" y="195" width="46" height="46" fill="#000000"/><rect x="701" y="241" width="46" height="46" fill="#000000"/><rect x="747" y="241" width="46" height="46" fill="#000000"/><rect x="839" y="241" width="46" height="46" fill="#000000"/><rect x="1023" y="241" width="46" height="46" fill="#000000"/><rect x="1115" y="241" width="46" height="46" fill="#000000"/><rect x="1207" y="241" width="46" height="46" fill="#000000"/><rect x="1345" y="241" width="46" height="46" fill="#000000"/><rect x="517" y="287" width="46" height="46" fill="#000000"/><rect x="563" y="287" width="46" height="46" fill="#000000"/><rect x="609" y="287" width="46" height="46" fill="#000000"/><rect x="701" y="287" width="46" height="46" fill="#000000"/><rect x="793" y="287" width="46" height="46" fill="#000000"/><rect x="839" y="287" width="46" height="46" fill="#000000"/><rect x="1299" y="287" width="46" height="46" fill="#000000"/><rect x="1391" y="287" width="46" height="46" fill="#000000"/><rect x="563" y="333" width="46" height="46" fill="#000000"/><rect x="839" y="333" width="46" height="46" fill="#000000"/><rect x="885" y="333" width="46" height="46" fill="#000000"/><rect x="977" y="333" width="46" height="46" fill="#000000"/><rect x="1023" y="333" width="46" height="46" fill="#000000"/><rect x="1115" y="333" width="46" height="46" fill="#000000"/><rect x="1161" y="333" width="46" height="46" fill="#000000"/><rect x="1253" y="333" width="46" height="46" fill="#000000"/><rect x="1345" y="333" width="46" height="46" fill="#000000"/><rect x="1437" y="333" width="46" height="46" fill="#000000"/><rect x="517" y="379" width="46" height="46" fill="#000000"/><rect x="563" y="379" width="46" height="46" fill="#000000"/><rect x="655" y="379" width="46" height="46" fill="#000000"/><rect x="701" y="379" width="46" height="46" fill="#000000"/><rect x="839" y="379" width="46" height="46" fill="#000000"/><rect x="931" y="379" width="46" height="46" fill="#000000"/><rect x="1069" y="379" width="46" height="46" fill="#000000"/><rect x="1161" y="379" width="46" height="46" fill="#000000"/><rect x="1253" y="379" width="46" height="46" fill="#000000"/><rect x="1299" y="379" width="46" height="46" fill="#000000"/><rect x="1345" y="379" width="46" height="46" fill="#000000"/><rect x="517" y="425" width="46" height="46" fill="#000000"/><rect x="609" y="425" width="46" height="46" fill="#000000"/><rect x="701" y="425" width="46" height="46" fill="#000000"/><rect x="793" y="425" width="46" height="46" fill="#000000"/><rect x="885" y="425" width="46" height="46" fill="#000000"/><rect x="977" y="425" width="46" height="46" fill="#000000"/><rect x="1069" y="425" width="46" height="46" fill="#000000"/><rect x="1161" y="425" width="46" height="46" fill="#000000"/><rect x="1253" y="425" width="46" height="46" fill="#000000"/><rect x="1345" y="425" width="46" height="46" fill="#000000"/><rect x="1437" y="425" width="46" height="46" fill="#000000"/><rect x="563" y="471" width="46" height="46" fill="#000000"/><rect x="609" y="471" width="46" height="46" fill="#000000"/><rect x="655" y="471" width="46" height="46" fill="#000000"/><rect x="793" y="471" width="46" height="46" fill="#000000"/><rect x="885" y="471" width="46" height="46" fill="#000000"/><rect x="977" y="471" width="46" height="46" fill="#000000"/><rect x="1023" y="471" width="46" height="46" fill="#000000"/><rect x="1207" y="471" width="46" height="46" fill="#000000"/><rect x="1299" y="471" width="46" height="46" fill="#000000"/><rect x="1437" y="471" width="46" height="46" fill="#000000"/><rect x="149" y="517" width="46" height="46" fill="#000000"/><rect x="195" y="517" width="46" height="46" fill="#000000"/><rect x="241" y="517" width="46" height="46" fill="#000000"/><rect x="287" y="517" width="46" height="46" fill="#000000"/><rect x="333" y="517" width="46" height="46" fill="#000000"/><rect x="425" y="517" width="46" height="46" fill="#000000"/><rect x="471" y="517" width="46" height="46" fill="#000000"/><rect x="517" y="517" width="46" height="46" fill="#000000"/><rect x="563" y="517" width="46" height="46" fill="#000000"/><rect x="655" y="517" width="46" height="46" fill="#000000"/><rect x="839" y="517" width="46" height="46" fill="#000000"/><rect x="977" y="517" width="46" height="46" fill="#000000"/><rect x="1161" y="517" width="46" height="46" fill="#000000"/><rect x="1253" y="517" width="46" height="46" fill="#000000"/><rect x="1391" y="517" width="46" height="46" fill="#000000"/><rect x="1437" y="517" width="46" height="46" fill="#000000"/><rect x="1483" y="517" width="46" height="46" fill="#000000"/><rect x="1575" y="517" width="46" height="46" fill="#000000"/><rect x="1667" y="517" width="46" height="46" fill="#000000"/><rect x="1759" y="517" width="46" height="46" fill="#000000"/><rect x="149" y="563" width="46" height="46" fill="#000000"/><rect x="195" y="563" width="46" height="46" fill="#000000"/><rect x="471" y="563" width="46" height="46" fill="#000000"/><rect x="517" y="563" width="46" height="46" fill="#000000"/><rect x="563" y="563" width="46" height="46" fill="#000000"/><rect x="609" y="563" width="46" height="46" fill="#000000"/><rect x="701" y="563" width="46" height="46" fill="#000000"/><rect x="747" y="563" width="46" height="46" fill="#000000"/><rect x="793" y="563" width="46" height="46" fill="#000000"/><rect x="885" y="563" width="46" height="46" fill="#000000"/><rect x="1069" y="563" width="46" height="46" fill="#000000"/><rect x="1115" y="563" width="46" height="46" fill="#000000"/><rect x="1161" y="563" width="46" height="46" fill="#000000"/><rect x="1207" y="563" width="46" height="46" fill="#000000"/><rect x="1345" y="563" width="46" height="46" fill="#000000"/><rect x="1437" y="563" width="46" height="46" fill="#000000"/><rect x="1483" y="563" width="46" height="46" fill="#000000"/><rect x="1529" y="563" width="46" height="46" fill="#000000"/><rect x="1575" y="563" width="46" height="46" fill="#000000"/><rect x="1621" y="563" width="46" height="46" fill="#000000"/><rect x="1805" y="563" width="46" height="46" fill="#000000"/><rect x="149" y="609" width="46" height="46" fill="#000000"/><rect x="241" y="609" width="46" height="46" fill="#000000"/><rect x="287" y="609" width="46" height="46" fill="#000000"/><rect x="333" y="609" width="46" height="46" fill="#000000"/><rect x="379" y="609" width="46" height="46" fill="#000000"/><rect x="425" y="609" width="46" height="46" fill="#000000"/><rect x="517" y="609" width="46" height="46" fill="#000000"/><rect x="563" y="609" width="46" height="46" fill="#000000"/><rect x="609" y="609" width="46" height="46" fill="#000000"/><rect x="747" y="609" width="46" height="46" fill="#000000"/><rect x="793" y="609" width="46" height="46" fill="#000000"/><rect x="839" y="609" width="46" height="46" fill="#000000"/><rect x="885" y="609" width="46" height="46" fill="#000000"/><rect x="931" y="609" width="46" height="46" fill="#000000"/><rect x="977" y="609" width="46" height="46" fill="#000000"/><rect x="1069" y="609" width="46" height="46" fill="#000000"/><rect x="1299" y="609" width="46" height="46" fill="#000000"/><rect x="1345" y="609" width="46" height="46" fill="#000000"/><rect x="1483" y="609" width="46" height="46" fill="#000000"/><rect x="1529" y="609" width="46" height="46" fill="#000000"/><rect x="1621" y="609" width="46" height="46" fill="#000000"/><rect x="1713" y="609" width="46" height="46" fill="#000000"/><rect x="1805" y="609" width="46" height="46" fill="#000000"/><rect x="287" y="655" width="46" height="46" fill="#000000"/><rect x="333" y="655" width="46" height="46" fill="#000000"/><rect x="379" y="655" width="46" height="46" fill="#000000"/><rect x="517" y="655" width="46" height="46" fill="#000000"/><rect x="563" y="655" width="46" height="46" fill="#000000"/><rect x="609" y="655" width="46" height="46" fill="#000000"/><rect x="701" y="655" width="46" height="46" fill="#000000"/><rect x="747" y="655" width="46" height="46" fill="#000000"/><rect x="1023" y="655" width="46" height="46" fill="#000000"/><rect x="1345" y="655" width="46" height="46" fill="#000000"/><rect x="1437" y="655" width="46" height="46" fill="#000000"/><rect x="1667" y="655" width="46" height="46" fill="#000000"/><rect x="1759" y="655" width="46" height="46" fill="#000000"/><rect x="149" y="701" width="46" height="46" fill="#000000"/><rect x="241" y="701" width="46" height="46" fill="#000000"/><rect x="287" y="701" width="46" height="46" fill="#000000"/><rect x="425" y="701" width="46" height="46" fill="#000000"/><rect x="471" y="701" width="46" height="46" fill="#000000"/><rect x="563" y="701" width="46" height="46" fill="#000000"/><rect x="701" y="701" width="46" height="46" fill="#000000"/><rect x="793" y="701" width="46" height="46" fill="#000000"/><rect x="839" y="701" width="46" height="46" fill="#000000"/><rect x="1069" y="701" width="46" height="46" fill="#000000"/><rect x="1115" y="701" width="46" height="46" fill="#000000"/><rect x="1161" y="701" width="46" height="46" fill="#000000"/><rect x="1345" y="701" width="46" height="46" fill="#000000"/><rect x="1391" y="701" width="46" height="46" fill="#000000"/><rect x="1437" y="701" width="46" height="46" fill="#000000"/><rect x="1713" y="701" width="46" height="46" fill="#000000"/><rect x="1759" y="701" width="46" height="46" fill="#000000"/><rect x="1805" y="701" width="46" height="46" fill="#000000"/><rect x="241" y="747" width="46" height="46" fill="#000000"/><rect x="287" y="747" width="46" height="46" fill="#000000"/><rect x="333" y="747" width="46" height="46" fill="#000000"/><rect x="379" y="747" width="46" height="46" fill="#000000"/><rect x="471" y="747" width="46" height="46" fill="#000000"/><rect x="517" y="747" width="46" height="46" fill="#000000"/><rect x="609" y="747" width="46" height="46" fill="#000000"/><rect x="977" y="747" width="46" height="46" fill="#000000"/><rect x="1023" y="747" width="46" height="46" fill="#000000"/><rect x="1115" y="747" width="46" height="46" fill="#000000"/><rect x="1161" y="747" width="46" height="46" fill="#000000"/><rect x="1391" y="747" width="46" height="46" fill="#000000"/><rect x="1483" y="747" width="46" height="46" fill="#000000"/><rect x="1529" y="747" width="46" height="46" fill="#000000"/><rect x="1575" y="747" width="46" height="46" fill="#000000"/><rect x="1621" y="747" width="46" height="46" fill="#000000"/><rect x="1667" y="747" width="46" height="46" fill="#000000"/><rect x="1805" y="747" width="46" height="46" fill="#000000"/><rect x="149" y="793" width="46" height="46" fill="#000000"/><rect x="333" y="793" width="46" height="46" fill="#000000"/><rect x="425" y="793" width="46" height="46" fill="#000000"/><rect x="471" y="793" width="46" height="46" fill="#000000"/><rect x="517" y="793" width="46" height="46" fill="#000000"/><rect x="655" y="793" width="46" height="46" fill="#000000"/><rect x="701" y="793" width="46" height="46" fill="#000000"/><rect x="839" y="793" width="46" height="46" fill="#000000"/><rect x="931" y="793" width="46" height="46" fill="#000000"/><rect x="977" y="793" width="46" height="46" fill="#000000"/><rect x="1207" y="793" width="46" height="46" fill="#000000"/><rect x="1253" y="793" width="46" height="46" fill="#000000"/><rect x="1299" y="793" width="46" height="46" fill="#000000"/><rect x="1345" y="793" width="46" height="46" fill="#000000"/><rect x="1483" y="793" width="46" height="46" fill="#000000"/><rect x="1529" y="793" width="46" height="46" fill="#000000"/><rect x="1621" y="793" width="46" height="46" fill="#000000"/><rect x="1713" y="793" width="46" height="46" fill="#000000"/><rect x="1759" y="793" width="46" height="46" fill="#000000"/><rect x="1805" y="793" width="46" height="46" fill="#000000"/><rect x="149" y="839" width="46" height="46" fill="#000000"/><rect x="241" y="839" width="46" height="46" fill="#000000"/><rect x="287" y="839" width="46" height="46" fill="#000000"/><rect x="333" y="839" width="46" height="46" fill="#000000"/><rect x="471" y="839" width="46" height="46" fill="#000000"/><rect x="563" y="839" width="46" height="46" fill="#000000"/><rect x="609" y="839" width="46" height="46" fill="#000000"/><rect x="655" y="839" width="46" height="46" fill="#000000"/><rect x="793" y="839" width="46" height="46" fill="#000000"/><rect x="885" y="839" width="46" height="46" fill="#000000"/><rect x="1023" y="839" width="46" height="46" fill="#000000"/><rect x="1069" y="839" width="46" height="46" fill="#000000"/><rect x="1161" y="839" width="46" height="46" fill="#000000"/><rect x="1207" y="839" width="46" height="46" fill="#000000"/><rect x="1253" y="839" width="46" height="46" fill="#000000"/><rect x="1437" y="839" width="46" height="46" fill="#000000"/><rect x="1575" y="839" width="46" height="46" fill="#000000"/><rect x="1667" y="839" width="46" height="46" fill="#000000"/><rect x="1713" y="839" width="46" height="46" fill="#000000"/><rect x="1759" y="839" width="46" height="46" fill="#000000"/><rect x="149" y="885" width="46" height="46" fill="#000000"/><rect x="333" y="885" width="46" height="46" fill="#000000"/><rect x="425" y="885" width="46" height="46" fill="#000000"/><rect x="471" y="885" width="46" height="46" fill="#000000"/><rect x="655" y="885" width="46" height="46" fill="#000000"/><rect x="839" y="885" width="46" height="46" fill="#000000"/><rect x="1069" y="885" width="46" height="46" fill="#000000"/><rect x="1115" y="885" width="46" height="46" fill="#000000"/><rect x="1345" y="885" width="46" height="46" fill="#000000"/><rect x="1391" y="885" width="46" height="46" fill="#000000"/><rect x="1483" y="885" width="46" height="46" fill="#000000"/><rect x="1575" y="885" width="46" height="46" fill="#000000"/><rect x="1667" y="885" width="46" height="46" fill="#000000"/><rect x="1713" y="885" width="46" height="46" fill="#000000"/><rect x="1759" y="885" width="46" height="46" fill="#000000"/><rect x="1805" y="885" width="46" height="46" fill="#000000"/><rect x="149" y="931" width="46" height="46" fill="#000000"/><rect x="195" y="931" width="46" height="46" fill="#000000"/><rect x="379" y="931" width="46" height="46" fill="#000000"/><rect x="471" y="931" width="46" height="46" fill="#000000"/><rect x="563" y="931" width="46" height="46" fill="#000000"/><rect x="701" y="931" width="46" height="46" fill="#000000"/><rect x="747" y="931" width="46" height="46" fill="#000000"/><rect x="793" y="931" width="46" height="46" fill="#000000"/><rect x="885" y="931" width="46" height="46" fill="#000000"/><rect x="977" y="931" width="46" height="46" fill="#000000"/><rect x="1115" y="931" width="46" height="46" fill="#000000"/><rect x="1161" y="931" width="46" height="46" fill="#000000"/><rect x="1345" y="931" width="46" height="46" fill="#000000"/><rect x="1391" y="931" width="46" height="46" fill="#000000"/><rect x="1437" y="931" width="46" height="46" fill="#000000"/><rect x="1575" y="931" width="46" height="46" fill="#000000"/><rect x="1667" y="931" width="46" height="46" fill="#000000"/><rect x="1805" y="931" width="46" height="46" fill="#000000"/><rect x="195" y="977" width="46" height="46" fill="#000000"/><rect x="287" y="977" width="46" height="46" fill="#000000"/><rect x="333" y="977" width="46" height="46" fill="#000000"/><rect x="425" y="977" width="46" height="46" fill="#000000"/><rect x="471" y="977" width="46" height="46" fill="#000000"/><rect x="609" y="977" width="46" height="46" fill="#000000"/><rect x="747" y="977" width="46" height="46" fill="#000000"/><rect x="793" y="977" width="46" height="46" fill="#000000"/><rect x="839" y="977" width="46" height="46" fill="#000000"/><rect x="885" y="977" width="46" height="46" fill="#000000"/><rect x="931" y="977" width="46" height="46" fill="#000000"/><rect x="977" y="977" width="46" height="46" fill="#000000"/><rect x="1069" y="977" width="46" height="46" fill="#000000"/><rect x="1253" y="977" width="46" height="46" fill="#000000"/><rect x="1299" y="977" width="46" height="46" fill="#000000"/><rect x="1391" y="977" width="46" height="46" fill="#000000"/><rect x="1437" y="977" width="46" height="46" fill="#000000"/><rect x="1483" y="977" width="46" height="46" fill="#000000"/><rect x="1529" y="977" width="46" height="46" fill="#000000"/><rect x="1621" y="977" width="46" height="46" fill="#000000"/><rect x="1667" y="977" width="46" height="46" fill="#000000"/><rect x="1713" y="977" width="46" height="46" fill="#000000"/><rect x="1759" y="977" width="46" height="46" fill="#000000"/><rect x="1805" y="977" width="46" height="46" fill="#000000"/><rect x="287" y="1023" width="46" height="46" fill="#000000"/><rect x="471" y="1023" width="46" height="46" fill="#000000"/><rect x="701" y="1023" width="46" height="46" fill="#000000"/><rect x="747" y="1023" width="46" height="46" fill="#000000"/><rect x="1023" y="1023" width="46" height="46" fill="#000000"/><rect x="1161" y="1023" width="46" height="46" fill="#000000"/><rect x="1207" y="1023" width="46" height="46" fill="#000000"/><rect x="1299" y="1023" width="46" height="46" fill="#000000"/><rect x="1437" y="1023" width="46" height="46" fill="#000000"/><rect x="1483" y="1023" width="46" height="46" fill="#000000"/><rect x="1575" y="1023" width="46" height="46" fill="#000000"/><rect x="1713" y="1023" width="46" height="46" fill="#000000"/><rect x="1759" y="1023" width="46" height="46" fill="#000000"/><rect x="149" y="1069" width="46" height="46" fill="#000000"/><rect x="195" y="1069" width="46" height="46" fill="#000000"/><rect x="425" y="1069" width="46" height="46" fill="#000000"/><rect x="609" y="1069" width="46" height="46" fill="#000000"/><rect x="701" y="1069" width="46" height="46" fill="#000000"/><rect x="793" y="1069" width="46" height="46" fill="#000000"/><rect x="839" y="1069" width="46" height="46" fill="#000000"/><rect x="885" y="1069" width="46" height="46" fill="#000000"/><rect x="931" y="1069" width="46" height="46" fill="#000000"/><rect x="977" y="1069" width="46" height="46" fill="#000000"/><rect x="1115" y="1069" width="46" height="46" fill="#000000"/><rect x="1253" y="1069" width="46" height="46" fill="#000000"/><rect x="1299" y="1069" width="46" height="46" fill="#000000"/><rect x="1345" y="1069" width="46" height="46" fill="#000000"/><rect x="1391" y="1069" width="46" height="46" fill="#000000"/><rect x="1437" y="1069" width="46" height="46" fill="#000000"/><rect x="1483" y="1069" width="46" height="46" fill="#000000"/><rect x="1529" y="1069" width="46" height="46" fill="#000000"/><rect x="1713" y="1069" width="46" height="46" fill="#000000"/><rect x="1759" y="1069" width="46" height="46" fill="#000000"/><rect x="1805" y="1069" width="46" height="46" fill="#000000"/><rect x="149" y="1115" width="46" height="46" fill="#000000"/><rect x="195" y="1115" width="46" height="46" fill="#000000"/><rect x="241" y="1115" width="46" height="46" fill="#000000"/><rect x="379" y="1115" width="46" height="46" fill="#000000"/><rect x="517" y="1115" width="46" height="46" fill="#000000"/><rect x="609" y="1115" width="46" height="46" fill="#000000"/><rect x="1023" y="1115" width="46" height="46" fill="#000000"/><rect x="1069" y="1115" width="46" height="46" fill="#000000"/><rect x="1115" y="1115" width="46" height="46" fill="#000000"/><rect x="1161" y="1115" width="46" height="46" fill="#000000"/><rect x="1207" y="1115" width="46" height="46" fill="#000000"/><rect x="1253" y="1115" width="46" height="46" fill="#000000"/><rect x="1345" y="1115" width="46" height="46" fill="#000000"/><rect x="1437" y="1115" width="46" height="46" fill="#000000"/><rect x="1575" y="1115" width="46" height="46" fill="#000000"/><rect x="1621" y="1115" width="46" height="46" fill="#000000"/><rect x="1667" y="1115" width="46" height="46" fill="#000000"/><rect x="1805" y="1115" width="46" height="46" fill="#000000"/><rect x="149" y="1161" width="46" height="46" fill="#000000"/><rect x="333" y="1161" width="46" height="46" fill="#000000"/><rect x="425" y="1161" width="46" height="46" fill="#000000"/><rect x="471" y="1161" width="46" height="46" fill="#000000"/><rect x="609" y="1161" width="46" height="46" fill="#000000"/><rect x="655" y="1161" width="46" height="46" fill="#000000"/><rect x="701" y="1161" width="46" height="46" fill="#000000"/><rect x="839" y="1161" width="46" height="46" fill="#000000"/><rect x="885" y="1161" width="46" height="46" fill="#000000"/><rect x="931" y="1161" width="46" height="46" fill="#000000"/><rect x="1069" y="1161" width="46" height="46" fill="#000000"/><rect x="1345" y="1161" width="46" height="46" fill="#000000"/><rect x="1483" y="1161" width="46" height="46" fill="#000000"/><rect x="1529" y="1161" width="46" height="46" fill="#000000"/><rect x="1621" y="1161" width="46" height="46" fill="#000000"/><rect x="1667" y="1161" width="46" height="46" fill="#000000"/><rect x="1713" y="1161" width="46" height="46" fill="#000000"/><rect x="333" y="1207" width="46" height="46" fill="#000000"/><rect x="471" y="1207" width="46" height="46" fill="#000000"/><rect x="517" y="1207" width="46" height="46" fill="#000000"/><rect x="563" y="1207" width="46" height="46" fill="#000000"/><rect x="655" y="1207" width="46" height="46" fill="#000000"/><rect x="793" y="1207" width="46" height="46" fill="#000000"/><rect x="977" y="1207" width="46" height="46" fill="#000000"/><rect x="1023" y="1207" width="46" height="46" fill="#000000"/><rect x="1161" y="1207" width="46" height="46" fill="#000000"/><rect x="1207" y="1207" width="46" height="46" fill="#000000"/><rect x="1345" y="1207" width="46" height="46" fill="#000000"/><rect x="1437" y="1207" width="46" height="46" fill="#000000"/><rect x="1575" y="1207" width="46" height="46" fill="#000000"/><rect x="1713" y="1207" width="46" height="46" fill="#000000"/><rect x="149" y="1253" width="46" height="46" fill="#000000"/><rect x="425" y="1253" width="46" height="46" fill="#000000"/><rect x="563" y="1253" width="46" height="46" fill="#000000"/><rect x="609" y="1253" width="46" height="46" fill="#000000"/><rect x="655" y="1253" width="46" height="46" fill="#000000"/><rect x="839" y="1253" width="46" height="46" fill="#000000"/><rect x="885" y="1253" width="46" height="46" fill="#000000"/><rect x="931" y="1253" width="46" height="46" fill="#000000"/><rect x="1115" y="1253" width="46" height="46" fill="#000000"/><rect x="1253" y="1253" width="46" height="46" fill="#000000"/><rect x="1299" y="1253" width="46" height="46" fill="#000000"/><rect x="1391" y="1253" width="46" height="46" fill="#000000"/><rect x="1483" y="1253" width="46" height="46" fill="#000000"/><rect x="1529" y="1253" width="46" height="46" fill="#000000"/><rect x="1713" y="1253" width="46" height="46" fill="#000000"/><rect x="1759" y="1253" width="46" height="46" fill="#000000"/><rect x="1805" y="1253" width="46" height="46" fill="#000000"/><rect x="149" y="1299" width="46" height="46" fill="#000000"/><rect x="241" y="1299" width="46" height="46" fill="#000000"/><rect x="287" y="1299" width="46" height="46" fill="#000000"/><rect x="333" y="1299" width="46" height="46" fill="#000000"/><rect x="379" y="1299" width="46" height="46" fill="#000000"/><rect x="517" y="1299" width="46" height="46" fill="#000000"/><rect x="563" y="1299" width="46" height="46" fill="#000000"/><rect x="609" y="1299" width="46" height="46" fill="#000000"/><rect x="701" y="1299" width="46" height="46" fill="#000000"/><rect x="747" y="1299" width="46" height="46" fill="#000000"/><rect x="793" y="1299" width="46" height="46" fill="#000000"/><rect x="839" y="1299" width="46" height="46" fill="#000000"/><rect x="977" y="1299" width="46" height="46" fill="#000000"/><rect x="1069" y="1299" width="46" height="46" fill="#000000"/><rect x="1115" y="1299" width="46" height="46" fill="#000000"/><rect x="1437" y="1299" width="46" height="46" fill="#000000"/><rect x="1483" y="1299" width="46" height="46" fill="#000000"/><rect x="1529" y="1299" width="46" height="46" fill="#000000"/><rect x="1575" y="1299" width="46" height="46" fill="#000000"/><rect x="1621" y="1299" width="46" height="46" fill="#000000"/><rect x="1805" y="1299" width="46" height="46" fill="#000000"/><rect x="149" y="1345" width="46" height="46" fill="#000000"/><rect x="333" y="1345" width="46" height="46" fill="#000000"/><rect x="425" y="1345" width="46" height="46" fill="#000000"/><rect x="471" y="1345" width="46" height="46" fill="#000000"/><rect x="517" y="1345" width="46" height="46" fill="#000000"/><rect x="609" y="1345" width="46" height="46" fill="#000000"/><rect x="747" y="1345" width="46" height="46" fill="#000000"/><rect x="793" y="1345" width="46" height="46" fill="#000000"/><rect x="839" y="1345" width="46" height="46" fill="#000000"/><rect x="885" y="1345" width="46" height="46" fill="#000000"/><rect x="931" y="1345" width="46" height="46" fill="#000000"/><rect x="1069" y="1345" width="46" height="46" fill="#000000"/><rect x="1161" y="1345" width="46" height="46" fill="#000000"/><rect x="1253" y="1345" width="46" height="46" fill="#000000"/><rect x="1299" y="1345" width="46" height="46" fill="#000000"/><rect x="1345" y="1345" width="46" height="46" fill="#000000"/><rect x="1483" y="1345" width="46" height="46" fill="#000000"/><rect x="1529" y="1345" width="46" height="46" fill="#000000"/><rect x="1621" y="1345" width="46" height="46" fill="#000000"/><rect x="1713" y="1345" width="46" height="46" fill="#000000"/><rect x="1759" y="1345" width="46" height="46" fill="#000000"/><rect x="1805" y="1345" width="46" height="46" fill="#000000"/><rect x="149" y="1391" width="46" height="46" fill="#000000"/><rect x="333" y="1391" width="46" height="46" fill="#000000"/><rect x="471" y="1391" width="46" height="46" fill="#000000"/><rect x="563" y="1391" width="46" height="46" fill="#000000"/><rect x="701" y="1391" width="46" height="46" fill="#000000"/><rect x="747" y="1391" width="46" height="46" fill="#000000"/><rect x="977" y="1391" width="46" height="46" fill="#000000"/><rect x="1023" y="1391" width="46" height="46" fill="#000000"/><rect x="1115" y="1391" width="46" height="46" fill="#000000"/><rect x="1207" y="1391" width="46" height="46" fill="#000000"/><rect x="1437" y="1391" width="46" height="46" fill="#000000"/><rect x="1483" y="1391" width="46" height="46" fill="#000000"/><rect x="1575" y="1391" width="46" height="46" fill="#000000"/><rect x="1667" y="1391" width="46" height="46" fill="#000000"/><rect x="1759" y="1391" width="46" height="46" fill="#000000"/><rect x="1805" y="1391" width="46" height="46" fill="#000000"/><rect x="149" y="1437" width="46" height="46" fill="#000000"/><rect x="425" y="1437" width="46" height="46" fill="#000000"/><rect x="471" y="1437" width="46" height="46" fill="#000000"/><rect x="517" y="1437" width="46" height="46" fill="#000000"/><rect x="609" y="1437" width="46" height="46" fill="#000000"/><rect x="701" y="1437" width="46" height="46" fill="#000000"/><rect x="793" y="1437" width="46" height="46" fill="#000000"/><rect x="839" y="1437" width="46" height="46" fill="#000000"/><rect x="885" y="1437" width="46" height="46" fill="#000000"/><rect x="931" y="1437" width="46" height="46" fill="#000000"/><rect x="977" y="1437" width="46" height="46" fill="#000000"/><rect x="1253" y="1437" width="46" height="46" fill="#000000"/><rect x="1345" y="1437" width="46" height="46" fill="#000000"/><rect x="1391" y="1437" width="46" height="46" fill="#000000"/><rect x="1437" y="1437" width="46" height="46" fill="#000000"/><rect x="1483" y="1437" width="46" height="46" fill="#000000"/><rect x="1529" y="1437" width="46" height="46" fill="#000000"/><rect x="1575" y="1437" width="46" height="46" fill="#000000"/><rect x="1621" y="1437" width="46" height="46" fill="#000000"/><rect x="1667" y="1437" width="46" height="46" fill="#000000"/><rect x="1759" y="1437" width="46" height="46" fill="#000000"/><rect x="1805" y="1437" width="46" height="46" fill="#000000"/><rect x="517" y="1483" width="46" height="46" fill="#000000"/><rect x="609" y="1483" width="46" height="46" fill="#000000"/><rect x="839" y="1483" width="46" height="46" fill="#000000"/><rect x="885" y="1483" width="46" height="46" fill="#000000"/><rect x="977" y="1483" width="46" height="46" fill="#000000"/><rect x="1023" y="1483" width="46" height="46" fill="#000000"/><rect x="1069" y="1483" width="46" height="46" fill="#000000"/><rect x="1115" y="1483" width="46" height="46" fill="#000000"/><rect x="1207" y="1483" width="46" height="46" fill="#000000"/><rect x="1345" y="1483" width="46" height="46" fill="#000000"/><rect x="1391" y="1483" width="46" height="46" fill="#000000"/><rect x="1437" y="1483" width="46" height="46" fill="#000000"/><rect x="1621" y="1483" width="46" height="46" fill="#000000"/><rect x="1805" y="1483" width="46" height="46" fill="#000000"/><rect x="517" y="1529" width="46" height="46" fill="#000000"/><rect x="609" y="1529" width="46" height="46" fill="#000000"/><rect x="655" y="1529" width="46" height="46" fill="#000000"/><rect x="701" y="1529" width="46" height="46" fill="#000000"/><rect x="839" y="1529" width="46" height="46" fill="#000000"/><rect x="931" y="1529" width="46" height="46" fill="#000000"/><rect x="977" y="1529" width="46" height="46" fill="#000000"/><rect x="1069" y="1529" width="46" height="46" fill="#000000"/><rect x="1161" y="1529" width="46" height="46" fill="#000000"/><rect x="1207" y="1529" width="46" height="46" fill="#000000"/><rect x="1253" y="1529" width="46" height="46" fill="#000000"/><rect x="1299" y="1529" width="46" height="46" fill="#000000"/><rect x="1345" y="1529" width="46" height="46" fill="#000000"/><rect x="1437" y="1529" width="46" height="46" fill="#000000"/><rect x="1529" y="1529" width="46" height="46" fill="#000000"/><rect x="1621" y="1529" width="46" height="46" fill="#000000"/><rect x="1667" y="1529" width="46" height="46" fill="#000000"/><rect x="1713" y="1529" width="46" height="46" fill="#000000"/><rect x="1759" y="1529" width="46" height="46" fill="#000000"/><rect x="1805" y="1529" width="46" height="46" fill="#000000"/><rect x="563" y="1575" width="46" height="46" fill="#000000"/><rect x="609" y="1575" width="46" height="46" fill="#000000"/><rect x="655" y="1575" width="46" height="46" fill="#000000"/><rect x="793" y="1575" width="46" height="46" fill="#000000"/><rect x="885" y="1575" width="46" height="46" fill="#000000"/><rect x="931" y="1575" width="46" height="46" fill="#000000"/><rect x="1023" y="1575" width="46" height="46" fill="#000000"/><rect x="1115" y="1575" width="46" height="46" fill="#000000"/><rect x="1207" y="1575" width="46" height="46" fill="#000000"/><rect x="1299" y="1575" width="46" height="46" fill="#000000"/><rect x="1437" y="1575" width="46" height="46" fill="#000000"/><rect x="1621" y="1575" width="46" height="46" fill="#000000"/><rect x="1667" y="1575" width="46" height="46" fill="#000000"/><rect x="517" y="1621" width="46" height="46" fill="#000000"/><rect x="563" y="1621" width="46" height="46" fill="#000000"/><rect x="655" y="1621" width="46" height="46" fill="#000000"/><rect x="839" y="1621" width="46" height="46" fill="#000000"/><rect x="977" y="1621" width="46" height="46" fill="#000000"/><rect x="1069" y="1621" width="46" height="46" fill="#000000"/><rect x="1115" y="1621" width="46" height="46" fill="#000000"/><rect x="1299" y="1621" width="46" height="46" fill="#000000"/><rect x="1437" y="1621" width="46" height="46" fill="#000000"/><rect x="1483" y="1621" width="46" height="46" fill="#000000"/><rect x="1529" y="1621" width="46" height="46" fill="#000000"/><rect x="1575" y="1621" width="46" height="46" fill="#000000"/><rect x="1621" y="1621" width="46" height="46" fill="#000000"/><rect x="517" y="1667" width="46" height="46" fill="#000000"/><rect x="701" y="1667" width="46" height="46" fill="#000000"/><rect x="747" y="1667" width="46" height="46" fill="#000000"/><rect x="793" y="1667" width="46" height="46" fill="#000000"/><rect x="839" y="1667" width="46" height="46" fill="#000000"/><rect x="1069" y="1667" width="46" height="46" fill="#000000"/><rect x="1115" y="1667" width="46" height="46" fill="#000000"/><rect x="1161" y="1667" width="46" height="46" fill="#000000"/><rect x="1253" y="1667" width="46" height="46" fill="#000000"/><rect x="1391" y="1667" width="46" height="46" fill="#000000"/><rect x="1437" y="1667" width="46" height="46" fill="#000000"/><rect x="1529" y="1667" width="46" height="46" fill="#000000"/><rect x="1575" y="1667" width="46" height="46" fill="#000000"/><rect x="1759" y="1667" width="46" height="46" fill="#000000"/><rect x="1805" y="1667" width="46" height="46" fill="#000000"/><rect x="517" y="1713" width="46" height="46" fill="#000000"/><rect x="563" y="1713" width="46" height="46" fill="#000000"/><rect x="747" y="1713" width="46" height="46" fill="#000000"/><rect x="793" y="1713" width="46" height="46" fill="#000000"/><rect x="885" y="1713" width="46" height="46" fill="#000000"/><rect x="931" y="1713" width="46" height="46" fill="#000000"/><rect x="977" y="1713" width="46" height="46" fill="#000000"/><rect x="1069" y="1713" width="46" height="46" fill="#000000"/><rect x="1161" y="1713" width="46" height="46" fill="#000000"/><rect x="1207" y="1713" width="46" height="46" fill="#000000"/><rect x="1253" y="1713" width="46" height="46" fill="#000000"/><rect x="1299" y="1713" width="46" height="46" fill="#000000"/><rect x="1345" y="1713" width="46" height="46" fill="#000000"/><rect x="1391" y="1713" width="46" height="46" fill="#000000"/><rect x="1483" y="1713" width="46" height="46" fill="#000000"/><rect x="1713" y="1713" width="46" height="46" fill="#000000"/><rect x="1805" y="1713" width="46" height="46" fill="#000000"/><rect x="517" y="1759" width="46" height="46" fill="#000000"/><rect x="563" y="1759" width="46" height="46" fill="#000000"/><rect x="609" y="1759" width="46" height="46" fill="#000000"/><rect x="701" y="1759" width="46" height="46" fill="#000000"/><rect x="747" y="1759" width="46" height="46" fill="#000000"/><rect x="1023" y="1759" width="46" height="46" fill="#000000"/><rect x="1115" y="1759" width="46" height="46" fill="#000000"/><rect x="1207" y="1759" width="46" height="46" fill="#000000"/><rect x="1299" y="1759" width="46" height="46" fill="#000000"/><rect x="1391" y="1759" width="46" height="46" fill="#000000"/><rect x="1483" y="1759" width="46" height="46" fill="#000000"/><rect x="1529" y="1759" width="46" height="46" fill="#000000"/><rect x="1621" y="1759" width="46" height="46" fill="#000000"/><rect x="1667" y="1759" width="46" height="46" fill="#000000"/><rect x="1759" y="1759" width="46" height="46" fill="#000000"/><rect x="517" y="1805" width="46" height="46" fill="#000000"/><rect x="701" y="1805" width="46" height="46" fill="#000000"/><rect x="793" y="1805" width="46" height="46" fill="#000000"/><rect x="839" y="1805" width="46" height="46" fill="#000000"/><rect x="885" y="1805" width="46" height="46" fill="#000000"/><rect x="977" y="1805" width="46" height="46" fill="#000000"/><rect x="1069" y="1805" width="46" height="46" fill="#000000"/><rect x="1299" y="1805" width="46" height="46" fill="#000000"/><rect x="1345" y="1805" width="46" height="46" fill="#000000"/><rect x="1483" y="1805" width="46" height="46" fill="#000000"/><rect x="1575" y="1805" width="46" height="46" fill="#000000"/><rect x="1667" y="1805" width="46" height="46" fill="#000000"/><rect x="1713" y="1805" width="46" height="46" fill="#000000"/><rect x="1759" y="1805" width="46" height="46" fill="#000000"/><rect x="1805" y="1805" width="46" height="46" fill="#000000"/><svg version="1.1" id="Ebene_1" x="149" y="149" width="322" height="322" viewBox="0 0 699.988 699.986" enable-background="new 0 0 699.988 699.986" xml:space="preserve" shape-rendering="auto">
<path fill="#000000" d="M600.99,0h-100h-99.997h-0.001h-99.997h-99.998h-99.998H1v99.998v99.998v99.998v99.999v99.997v99.998v99.998  h99.999h99.998h99.998h99.997h0.001h99.997h100h99.998v-99.998V499.99v-99.997v-99.999v-99.998V99.998V0H600.99z M600.99,199.996  v99.998v99.999v99.997v99.998h-100h-99.997h-0.001h-99.997h-99.998h-99.998V499.99v-99.997v-99.999v-99.998V99.998h99.998h99.998  h99.997h0.001h99.997h100V199.996z"/>
</svg>
<svg version="1.0" id="Ebene_1" x="149" y="149" width="322" height="322" viewBox="0 0 699.988 699.988" enable-background="new 0 0 699.988 699.988" xml:space="preserve" shape-rendering="auto">
<polygon fill="#000000" points="399.994,199.997 399.992,199.997 299.996,199.997 199.998,199.997 199.998,299.994 199.998,399.994   199.998,499.991 299.996,499.991 399.992,499.991 399.994,499.991 499.99,499.991 499.99,399.994 499.99,299.994 499.99,199.997 "/>
</svg>
<svg version="1.1" id="Ebene_1" x="1529" y="149" width="322" height="322" viewBox="0 0 699.988 699.986" enable-background="new 0 0 699.988 699.986" xml:space="preserve" shape-rendering="auto">
<path fill="#000000" d="M600.99,0h-100h-99.997h-0.001h-99.997h-99.998h-99.998H1v99.998v99.998v99.998v99.999v99.997v99.998v99.998  h99.999h99.998h99.998h99.997h0.001h99.997h100h99.998v-99.998V499.99v-99.997v-99.999v-99.998V99.998V0H600.99z M600.99,199.996  v99.998v99.999v99.997v99.998h-100h-99.997h-0.001h-99.997h-99.998h-99.998V499.99v-99.997v-99.999v-99.998V99.998h99.998h99.998  h99.997h0.001h99.997h100V199.996z"/>
</svg>
<svg version="1.0" id="Ebene_1" x="1529" y="149" width="322" height="322" viewBox="0 0 699.988 699.988" enable-background="new 0 0 699.988 699.988" xml:space="preserve" shape-rendering="auto">
<polygon fill="#000000" points="399.994,199.997 399.992,199.997 299.996,199.997 199.998,199.997 199.998,299.994 199.998,399.994   199.998,499.991 299.996,499.991 399.992,499.991 399.994,499.991 499.99,499.991 499.99,399.994 499.99,299.994 499.99,199.997 "/>
</svg>
<svg version="1.1" id="Ebene_1" x="149" y="1529" width="322" height="322" viewBox="0 0 699.988 699.986" enable-background="new 0 0 699.988 699.986" xml:space="preserve" shape-rendering="auto">
<path fill="#000000" d="M600.99,0h-100h-99.997h-0.001h-99.997h-99.998h-99.998H1v99.998v99.998v99.998v99.999v99.997v99.998v99.998  h99.999h99.998h99.998h99.997h0.001h99.997h100h99.998v-99.998V499.99v-99.997v-99.999v-99.998V99.998V0H600.99z M600.99,199.996  v99.998v99.999v99.997v99.998h-100h-99.997h-0.001h-99.997h-99.998h-99.998V499.99v-99.997v-99.999v-99.998V99.998h99.998h99.998  h99.997h0.001h99.997h100V199.996z"/>
</svg>
<svg version="1.0" id="Ebene_1" x="149" y="1529" width="322" height="322" viewBox="0 0 699.988 699.988" enable-background="new 0 0 699.988 699.988" xml:space="preserve" shape-rendering="auto">
<polygon fill="#000000" points="399.994,199.997 399.992,199.997 299.996,199.997 199.998,199.997 199.998,299.994 199.998,399.994   199.998,499.991 299.996,499.991 399.992,499.991 399.994,499.991 499.99,499.991 499.99,399.994 499.99,299.994 499.99,199.997 "/>
</svg>
</svg>

</svg>
